<svg width="16" height="16" viewBox="0 0 16 16" fill="none" xmlns="http://www.w3.org/2000/svg">
    <g clip-path="url(#clip0_442_12089)">
    <path d="M6.50293 0.5C8.14639 0.5 9.49582 1.77877 9.61035 3.39355H11.7246C12.1562 3.39371 12.5058 3.74408 12.5059 4.17578V6.28906C14.1211 6.4031 15.4003 7.7536 15.4004 9.39746L15.3965 9.55664C15.3168 11.1274 14.0684 12.3936 12.5059 12.5039V14.6182C12.5057 15.0499 12.1562 15.4003 11.7246 15.4004H1.28223C0.850486 15.4004 0.500132 15.0499 0.5 14.6182V11.4629C0.500178 11.0311 0.850514 10.6816 1.28223 10.6816H1.8418C2.5495 10.6816 3.12567 10.1051 3.12598 9.39746C3.12598 8.68956 2.54969 8.11328 1.8418 8.11328H1.28223C0.850475 8.11328 0.500132 7.76278 0.5 7.33105V4.17578C0.500105 3.74398 0.850469 3.39355 1.28223 3.39355H3.39551C3.50997 1.77884 4.85958 0.500141 6.50293 0.5ZM6.50293 2.06445C5.64744 2.0646 4.95117 2.76069 4.95117 3.61621V4.17578C4.95104 4.60756 4.60069 4.95801 4.16895 4.95801H2.06445V6.56055C3.53126 6.6746 4.69043 7.90186 4.69043 9.39746C4.69011 10.8928 3.53107 12.1194 2.06445 12.2334V13.8359H10.9424V11.7314C10.9424 11.2996 11.2928 10.9492 11.7246 10.9492H12.2842C13.0862 10.9492 13.7483 10.3371 13.8281 9.55566L13.8359 9.39746C13.8359 8.5418 13.1398 7.84473 12.2842 7.84473H11.7246C11.293 7.84473 10.9428 7.49499 10.9424 7.06348V4.95801H8.83691C8.40529 4.95787 8.0558 4.60748 8.05566 4.17578V3.61621C8.05566 2.7606 7.35854 2.06445 6.50293 2.06445Z" fill="currentColor"/>
    </g>
    <defs>
    <clipPath id="clip0_442_12089">
    <rect width="16" height="16" fill="white"/>
    </clipPath>
    </defs>
    </svg>
    