<svg width="24" height="24" viewBox="0 0 24 24" fill="none" xmlns="http://www.w3.org/2000/svg">
<mask id="mask0_2218_12633" style="mask-type:luminance" maskUnits="userSpaceOnUse" x="0" y="0" width="24" height="24">
<path d="M24 0H0V24H24V0Z" fill="white"/>
</mask>
<g mask="url(#mask0_2218_12633)">
<path d="M11.9987 10.1103C11.6087 10.1103 11.2187 10.0303 10.8587 9.87025L6.41877 7.93025C6.03877 7.76025 5.86877 7.32025 6.02877 6.94025C6.19877 6.56025 6.63877 6.39025 7.01877 6.55025L11.4587 8.49025C11.7987 8.64025 12.1987 8.64025 12.5387 8.49025L16.9787 6.57025C17.3587 6.41025 17.7987 6.58025 17.9687 6.96025C18.1387 7.34025 17.9587 7.78025 17.5787 7.95025L13.1387 9.87025C12.7787 10.0303 12.3887 10.1003 11.9987 10.1003V10.1103Z" fill="black"/>
<path d="M10.94 19.08H6.72C3.98 19.08 1.75 16.85 1.75 14.11V6.72C1.75 3.98 3.98 1.75 6.72 1.75H17.28C20.02 1.75 22.25 3.98 22.25 6.72V9.89C22.25 10.3 21.91 10.64 21.5 10.64C21.09 10.64 20.75 10.3 20.75 9.89V6.72C20.75 4.81 19.19 3.25 17.28 3.25H6.72C4.81 3.25 3.25 4.81 3.25 6.72V14.11C3.25 16.02 4.81 17.58 6.72 17.58H10.94C11.35 17.58 11.69 17.92 11.69 18.33C11.69 18.74 11.35 19.08 10.94 19.08Z" fill="black"/>
<path d="M18.3302 22.2505C16.1702 22.2505 14.4102 20.4905 14.4102 18.3305V16.2205C14.4102 15.8105 14.7502 15.4705 15.1602 15.4705C15.5702 15.4705 15.9102 15.8105 15.9102 16.2205V18.3305C15.9102 19.6605 16.9902 20.7505 18.3302 20.7505C19.6702 20.7505 20.7502 19.6705 20.7502 18.3305V14.6405C20.7502 14.1805 20.3802 13.8105 19.9202 13.8105C19.4602 13.8105 19.0902 14.1805 19.0902 14.6405V18.3305C19.0902 18.7405 18.7502 19.0805 18.3402 19.0805C17.9302 19.0805 17.5902 18.7405 17.5902 18.3305V14.6405C17.5902 13.3505 18.6402 12.3105 19.9202 12.3105C21.2002 12.3105 22.2502 13.3605 22.2502 14.6405V18.3305C22.2502 20.4905 20.4902 22.2505 18.3302 22.2505Z" fill="black"/>
</g>
</svg>
