<svg width="14" height="15" viewBox="0 0 14 15" fill="none" xmlns="http://www.w3.org/2000/svg">
<mask id="path-1-inside-1_2107_1493" fill="white">
<path d="M12.959 0.99266C13.5113 0.994017 13.9579 1.44283 13.9565 1.99511L13.932 11.9951C13.9306 12.5474 13.4818 12.994 12.9295 12.9926L4.92953 12.973L4.95901 0.973006L12.959 0.99266Z"/>
</mask>
<path d="M5.92707 13.9754L4.92707 13.973L4.93199 11.973L5.93198 11.9754L5.92707 13.9754ZM5.95655 1.97546L4.95655 1.973L4.96147 -0.0269907L5.96147 -0.0245339L5.95655 1.97546ZM9.95654 1.98529L7.95655 1.98037L7.96146 -0.0196204L9.96145 -0.0147068L9.95654 1.98529ZM9.92706 13.9853L7.92706 13.9803L7.93198 11.9803L9.93197 11.9853L9.92706 13.9853ZM11.9565 1.9902L11.9614 -0.00979331L12.9614 -0.00733654C14.066 -0.00462287 14.9592 0.893005 14.9565 1.99757L14.9545 2.83058L12.9545 2.82566L12.9565 1.99266L11.9565 1.9902ZM11.9271 13.9902L11.932 11.9902L12.932 11.9926L12.934 11.1596L14.934 11.1645L14.932 11.9975C14.9292 13.1021 14.0316 13.9953 12.927 13.9926L11.9271 13.9902ZM14.9463 6.16455L12.9463 6.15964L12.9504 4.49265L14.9504 4.49756L14.9463 6.16455ZM14.9381 9.49755L12.9381 9.49263L12.9422 7.82565L14.9422 7.83056L14.9381 9.49755Z" fill="#939393" mask="url(#path-1-inside-1_2107_1493)"/>
<rect x="4.53516" y="0.512695" width="13" height="4" rx="0.5" transform="rotate(90 4.53516 0.512695)" stroke="white"/>
</svg>
