<svg width="15" height="15" viewBox="0 0 15 15" fill="none" xmlns="http://www.w3.org/2000/svg">
<mask id="path-1-inside-1_2107_1496" fill="white">
<path d="M9.03125 1.01855L9.00177 13.0185L1.00179 12.9989C0.44951 12.9975 0.00289608 12.5487 0.00425291 11.9964L0.0288206 1.99644C0.0301774 1.44416 0.478991 0.997544 1.03127 0.998901L9.03125 1.01855Z"/>
</mask>
<path d="M1.02677 2.8319L-0.973223 2.82699L-0.971176 1.99398C-0.968463 0.889418 -0.070835 -0.00381009 1.03373 -0.00109642L2.03373 0.00136035L2.02881 2.00135L1.02882 1.9989L1.02677 2.8319ZM1.00425 11.9989L2.00425 12.0013L1.99933 14.0013L0.999336 13.9989C-0.10523 13.9961 -0.998458 13.0985 -0.995744 11.994L-0.993698 11.1609L1.0063 11.1659L1.00425 11.9989ZM1.01858 6.16588L-0.981414 6.16096L-0.977318 4.49398L1.02268 4.49889L1.01858 6.16588ZM1.01039 9.49887L-0.989602 9.49396L-0.985507 7.82697L1.01449 7.83189L1.01039 9.49887ZM6.0288 2.01118L4.02881 2.00627L4.03372 0.00627389L6.03372 0.0111874L6.0288 2.01118ZM5.99932 14.0111L3.99933 14.0062L4.00424 12.0062L6.00423 12.0112L5.99932 14.0111ZM9.02879 2.01855L8.0288 2.01609L8.03371 0.016101L9.03371 0.0185577L9.02879 2.01855ZM8.99931 14.0185L7.99932 14.0161L8.00423 12.0161L9.00423 12.0185L8.99931 14.0185Z" fill="#939393" mask="url(#path-1-inside-1_2107_1496)"/>
<rect x="13.6055" y="0.53418" width="13" height="4" rx="0.5" transform="rotate(90 13.6055 0.53418)" stroke="white"/>
</svg>
