<svg width="16" height="16" viewBox="0 0 16 16" fill="currentColor" xmlns="http://www.w3.org/2000/svg">
  <path d="M8 0.25C9.39291 0.25 10.5131 0.248121 11.3916 0.366211C12.2917 0.487227 13.0495 0.746718 13.6514 1.34863L13.7607 1.46289C14.2856 2.04541 14.5203 2.76456 14.6338 3.6084C14.7519 4.4869 14.75 5.60709 14.75 7V9C14.75 10.3929 14.7519 11.5131 14.6338 12.3916C14.5203 13.2354 14.2856 13.9546 13.7607 14.5371L13.6514 14.6514C13.0495 15.2533 12.2917 15.5128 11.3916 15.6338C10.5131 15.7519 9.39291 15.75 8 15.75C6.60709 15.75 5.4869 15.7519 4.6084 15.6338C3.76456 15.5203 3.04541 15.2856 2.46289 14.7607L2.34863 14.6514C1.74672 14.0495 1.48723 13.2917 1.36621 12.3916C1.24812 11.5131 1.25 10.3929 1.25 9V7C1.25 5.60709 1.24812 4.4869 1.36621 3.6084C1.48723 2.70829 1.74672 1.95055 2.34863 1.34863L2.46289 1.23926C3.04541 0.714422 3.76456 0.479662 4.6084 0.366211C5.4869 0.248121 6.60709 0.25 8 0.25ZM8 1.75C6.56485 1.75 5.5639 1.75202 4.80859 1.85352C4.16663 1.93983 3.78836 2.08832 3.51855 2.30957L3.40918 2.40918C3.13242 2.68594 2.95217 3.07482 2.85352 3.80859C2.75202 4.5639 2.75 5.56485 2.75 7V9C2.75 10.4352 2.75202 11.4361 2.85352 12.1914C2.95217 12.9252 3.13242 13.3141 3.40918 13.5908L3.51855 13.6904C3.78836 13.9117 4.16663 14.0602 4.80859 14.1465C5.5639 14.248 6.56485 14.25 8 14.25C9.43515 14.25 10.4361 14.248 11.1914 14.1465C11.9252 14.0478 12.3141 13.8676 12.5908 13.5908L12.6904 13.4814C12.9117 13.2116 13.0602 12.8334 13.1465 12.1914C13.248 11.4361 13.25 10.4352 13.25 9V7C13.25 5.56485 13.248 4.5639 13.1465 3.80859C13.0602 3.16663 12.9117 2.78836 12.6904 2.51855L12.5908 2.40918C12.3141 2.13242 11.9252 1.95217 11.1914 1.85352C10.4361 1.75202 9.43515 1.75 8 1.75ZM7.54395 10.7539C7.92191 10.7925 8.2168 11.1118 8.2168 11.5C8.2168 11.8882 7.92191 12.2075 7.54395 12.2461L7.4668 12.25H5.4668C5.05258 12.25 4.7168 11.9142 4.7168 11.5C4.7168 11.0858 5.05258 10.75 5.4668 10.75H7.4668L7.54395 10.7539ZM10.1104 7.25391C10.4884 7.29246 10.7832 7.61179 10.7832 8C10.7832 8.38821 10.4884 8.70754 10.1104 8.74609L10.0332 8.75H5.46191C5.0477 8.75 4.71191 8.41421 4.71191 8C4.71192 7.58579 5.0477 7.25 5.46191 7.25H10.0332L10.1104 7.25391ZM10.5439 3.75391C10.9219 3.79253 11.2168 4.11183 11.2168 4.5C11.2168 4.88817 10.9219 5.20747 10.5439 5.24609L10.4668 5.25H5.4668C5.05258 5.25 4.7168 4.91421 4.7168 4.5C4.7168 4.08579 5.05258 3.75 5.4668 3.75H10.4668L10.5439 3.75391Z"/>
  </svg>
  