<svg
        width="16"
        height="16"
        viewBox="0 0 16 16"
        fill="currentColor"
        xmlns="http://www.w3.org/2000/svg"
      >
        <path d="M9.47656 1.25391C9.85481 1.29226 10.1504 1.61164 10.1504 2C10.1504 2.38836 9.85481 2.70774 9.47656 2.74609L9.40039 2.75H4.5C3.56663 2.75 2.90321 2.98546 2.47559 3.38574C2.05697 3.77772 1.75002 4.43519 1.75 5.5293V10.4707C1.75002 11.5648 2.05697 12.2223 2.47559 12.6143C2.90321 13.0145 3.56663 13.25 4.5 13.25H11.5C12.4334 13.25 13.0968 13.0145 13.5244 12.6143C13.943 12.2223 14.25 11.5648 14.25 10.4707V6.94141C14.25 6.52719 14.5858 6.19141 15 6.19141C15.4142 6.19141 15.75 6.52719 15.75 6.94141V10.4707C15.75 11.8471 15.3562 12.9539 14.5498 13.709C13.7524 14.4556 12.6664 14.75 11.5 14.75H4.5C3.33356 14.75 2.24758 14.4556 1.4502 13.709C0.643842 12.9539 0.250021 11.8471 0.25 10.4707V5.5293C0.250021 4.15293 0.643842 3.04606 1.4502 2.29102C2.24758 1.5444 3.33356 1.25 4.5 1.25H9.40039L9.47656 1.25391ZM4.41602 5.37598C4.65967 5.07371 5.08968 5.01048 5.4082 5.21777L5.4707 5.2627L7.63672 7.00879H7.63574C8.07504 7.35928 8.85791 7.35864 9.29688 7.00781L10.1162 6.34961C10.4392 6.09037 10.9116 6.14198 11.1709 6.46484C11.43 6.78778 11.3785 7.26023 11.0557 7.51953L10.2354 8.17773L10.2344 8.17871C9.24718 8.96855 7.68434 8.96872 6.69727 8.17871L6.69531 8.17676L4.5293 6.43066L4.47168 6.37988C4.20136 6.11269 4.17245 5.67831 4.41602 5.37598ZM13.0947 0.900391C13.383 0.900609 13.6699 1.09415 13.7422 1.42285L13.7441 1.42188L13.8965 2.08984L13.9268 2.18652C14.0102 2.40174 14.1918 2.56204 14.415 2.61621L15.0811 2.77051L15.0928 2.77344L15.1045 2.77734L15.2168 2.81836C15.4616 2.93398 15.6005 3.17933 15.6006 3.4248C15.6006 3.70645 15.413 3.99789 15.0801 4.07227L15.0811 4.07422L14.415 4.22852C14.1608 4.29017 13.9592 4.48963 13.8965 4.75098L13.8975 4.75195L13.7441 5.42383L13.7412 5.43457L13.7383 5.44629C13.6542 5.75704 13.3768 5.9451 13.0898 5.94531C12.8016 5.94518 12.5148 5.75139 12.4424 5.42285L12.4414 5.42383L12.2881 4.75391V4.75488C12.2264 4.49199 12.0256 4.29066 11.7705 4.22852L11.1045 4.07422L11.0918 4.07129L11.0811 4.06836C10.7665 3.98191 10.585 3.70093 10.585 3.41992C10.585 3.1381 10.7721 2.84653 11.1055 2.77246L11.1045 2.77051L11.7705 2.61621C11.9935 2.56185 12.1755 2.40164 12.2588 2.18652L12.2881 2.08984L12.4414 1.42188L12.4434 1.41016L12.4473 1.39844L12.4873 1.28809C12.6006 1.0441 12.8437 0.90055 13.0947 0.900391ZM13.0928 3.11523C13.0027 3.22892 12.8996 3.33153 12.7861 3.42188C12.8995 3.51211 13.0027 3.61495 13.0928 3.72852C13.1826 3.61534 13.2845 3.51188 13.3975 3.42188C13.2845 3.33177 13.1826 3.22853 13.0928 3.11523Z" />
      </svg>