<svg width="16" height="16" viewBox="0 0 16 16" fill="none" xmlns="http://www.w3.org/2000/svg">
    <path d="M12.6973 3.30273L14.7803 5.38672L15 5.60645V11.25C15 13.321 13.3209 14.9998 11.25 15H4.75C2.67893 15 1 13.3211 1 11.25V4.75C1.00016 2.67907 2.67903 1 4.75 1H10.3945L12.6973 3.30273ZM4.75 2.5C3.50746 2.5 2.50016 3.5075 2.5 4.75V11.25C2.5 12.4926 3.50736 13.5 4.75 13.5H11.25C12.4925 13.4998 13.5 12.4925 13.5 11.25V6.66699H11.084C10.1176 6.66699 9.33411 5.88338 9.33398 4.91699V2.5H4.75ZM10.834 4.91699C10.8341 5.05495 10.946 5.16699 11.084 5.16699H12.4404L10.834 3.56055V4.91699Z" fill="currentColor"/>
    </svg>
    