<svg
data-v-2503513a=""
              x="0px"
              y="0px"
              width="1em"
              height="1em"
              viewBox="0 0 60 60"
            >
              <g data-v-2503513a="">
                <path
                  data-v-2503513a=""
                  d="M30,15c3.9,0,7-3.1,7-7s-3.1-7-7-7s-7,3.1-7,7S26.1,15,30,15z"
                ></path>
                <path
                  data-v-2503513a=""
                  d="M30,45c-3.9,0-7,3.1-7,7s3.1,7,7,7s7-3.1,7-7S33.9,45,30,45z"
                ></path>
                <path
                  data-v-2503513a=""
                  d="M30,23c-3.9,0-7,3.1-7,7s3.1,7,7,7s7-3.1,7-7S33.9,23,30,23z"
                ></path>
              </g>
            </svg>