<svg width="18" height="18" viewBox="0 0 18 18" fill="none" xmlns="http://www.w3.org/2000/svg">
<path d="M9.01758 1.21875C13.3247 1.21881 16.8163 4.71042 16.8164 9.01758C16.8163 10.7504 15.2379 11.7412 13.7861 11.7412H13.3262C13.2052 11.7413 13.0858 11.7701 12.9775 11.8242C12.5922 12.017 12.4362 12.4857 12.6289 12.8711C12.787 13.1876 12.8691 13.5368 12.8691 13.8906V14.0293C12.8691 15.0863 12.2684 16.2154 11.085 16.54C10.4258 16.7208 9.73214 16.8164 9.01758 16.8164C4.71042 16.8163 1.21881 13.3247 1.21875 9.01758C1.21887 4.71046 4.71046 1.21887 9.01758 1.21875ZM9.01758 2.71875C5.53888 2.71887 2.71887 5.53888 2.71875 9.01758C2.71881 12.4963 5.53885 15.3163 9.01758 15.3164C9.59687 15.3164 10.1574 15.2384 10.6885 15.0928C11.0634 14.9897 11.3691 14.5882 11.3691 14.0293V13.8906C11.3691 13.7696 11.3412 13.6493 11.2871 13.541C10.7242 12.4148 11.1805 11.0456 12.3066 10.4824C12.6232 10.3242 12.9723 10.2413 13.3262 10.2412H13.7861C14.7045 10.2412 15.3163 9.65491 15.3164 9.01758C15.3163 5.53885 12.4963 2.71881 9.01758 2.71875ZM5.38965 11.5859C5.68254 11.293 6.1573 11.293 6.4502 11.5859C6.74289 11.8788 6.74302 12.3537 6.4502 12.6465L6.43262 12.6631C6.13976 12.9559 5.66497 12.9559 5.37207 12.6631C5.07959 12.3702 5.07933 11.8953 5.37207 11.6025L5.38965 11.5859ZM4.63672 8.26758C5.05066 8.26773 5.3865 8.60365 5.38672 9.01758C5.38666 9.43164 5.05076 9.76742 4.63672 9.76758H4.6123C4.19813 9.76758 3.86237 9.43174 3.8623 9.01758C3.86252 8.60355 4.19823 8.26758 4.6123 8.26758H4.63672ZM5.37207 5.37207C5.66489 5.07925 6.13971 5.07941 6.43262 5.37207L6.4502 5.38965C6.74289 5.68256 6.74302 6.15737 6.4502 6.4502C6.15735 6.74283 5.6825 6.74282 5.38965 6.4502L5.37207 6.43262C5.07947 6.13977 5.07944 5.6649 5.37207 5.37207ZM11.6025 5.37207C11.8954 5.07917 12.3712 5.07918 12.6641 5.37207C12.9566 5.66484 12.9565 6.13976 12.6641 6.43262L12.6465 6.4502C12.3537 6.74303 11.8788 6.7429 11.5859 6.4502C11.293 6.15731 11.293 5.68255 11.5859 5.38965L11.6025 5.37207ZM9.01758 3.8623C9.43174 3.86237 9.76758 4.19813 9.76758 4.6123V4.63672C9.76742 5.05076 9.43164 5.38666 9.01758 5.38672C8.60365 5.3865 8.26773 5.05066 8.26758 4.63672V4.6123C8.26758 4.19823 8.60355 3.86252 9.01758 3.8623Z" fill="#333333"/>
</svg>
