<svg
        width="16"
        height="16"
        viewBox="0 0 16 16"
        fill="currentColor"
        xmlns="http://www.w3.org/2000/svg"
      >
        <path d="M8 0.25C9.39291 0.25 10.5131 0.248121 11.3916 0.366211C12.2917 0.487227 13.0495 0.746718 13.6514 1.34863L13.7607 1.46289C14.2856 2.04541 14.5203 2.76456 14.6338 3.6084C14.7519 4.4869 14.75 5.60709 14.75 7V9C14.75 10.3929 14.7519 11.5131 14.6338 12.3916C14.5203 13.2354 14.2856 13.9546 13.7607 14.5371L13.6514 14.6514C13.0495 15.2533 12.2917 15.5128 11.3916 15.6338C10.5131 15.7519 9.39291 15.75 8 15.75C6.60709 15.75 5.4869 15.7519 4.6084 15.6338C3.76456 15.5203 3.04541 15.2856 2.46289 14.7607L2.34863 14.6514C1.74672 14.0495 1.48723 13.2917 1.36621 12.3916C1.24812 11.5131 1.25 10.3929 1.25 9V7C1.25 5.60709 1.24812 4.4869 1.36621 3.6084C1.48723 2.70829 1.74672 1.95055 2.34863 1.34863L2.46289 1.23926C3.04541 0.714422 3.76456 0.479662 4.6084 0.366211C5.4869 0.248121 6.60709 0.25 8 0.25ZM8 1.75C6.56485 1.75 5.5639 1.75202 4.80859 1.85352C4.16663 1.93983 3.78836 2.08832 3.51855 2.30957L3.40918 2.40918C3.13242 2.68594 2.95217 3.07482 2.85352 3.80859C2.75202 4.5639 2.75 5.56485 2.75 7V9C2.75 10.4352 2.75202 11.4361 2.85352 12.1914C2.95217 12.9252 3.13242 13.3141 3.40918 13.5908L3.51855 13.6904C3.78836 13.9117 4.16663 14.0602 4.80859 14.1465C5.5639 14.248 6.56485 14.25 8 14.25C9.43515 14.25 10.4361 14.248 11.1914 14.1465C11.9252 14.0478 12.3141 13.8676 12.5908 13.5908L12.6904 13.4814C12.9117 13.2116 13.0602 12.8334 13.1465 12.1914C13.248 11.4361 13.25 10.4352 13.25 9V7C13.25 5.56485 13.248 4.5639 13.1465 3.80859C13.0602 3.16663 12.9117 2.78836 12.6904 2.51855L12.5908 2.40918C12.3141 2.13242 11.9252 1.95217 11.1914 1.85352C10.4361 1.75202 9.43515 1.75 8 1.75ZM10.75 11C11.1642 11 11.5 11.3358 11.5 11.75C11.5 12.1642 11.1642 12.5 10.75 12.5H5.25C4.83579 12.5 4.5 12.1642 4.5 11.75C4.5 11.3358 4.83579 11 5.25 11H10.75ZM10.75 3.5C11.1642 3.5 11.5 3.83579 11.5 4.25C11.5 4.66421 11.1642 5 10.75 5H5.25C4.83579 5 4.5 4.66421 4.5 4.25C4.5 3.83579 4.83579 3.5 5.25 3.5H10.75Z" />
      </svg>