<svg width="16" height="16" viewBox="0 0 16 16" fill="none" xmlns="http://www.w3.org/2000/svg">
  <g clip-path="url(#clip0_397_12392)">
  <path d="M7.12695 1.13135C7.65943 0.663442 8.47258 0.687797 8.96875 1.23291L8.96973 1.23193L11.2461 3.70264L12.874 1.93701L13.0234 1.78662C13.1791 1.64189 13.3522 1.51811 13.542 1.43604C13.8032 1.32315 14.1348 1.27646 14.4609 1.42334C14.7785 1.56648 14.9639 1.83589 15.0635 2.0874C15.1627 2.33822 15.2002 2.62358 15.2002 2.9126V10.9751L15.1953 11.1987C15.1518 12.3069 14.7851 13.285 14.1211 14.0054C13.4078 14.779 12.4019 15.2007 11.25 15.2007H4.74707C2.5171 15.1918 0.800281 13.2466 0.799805 10.9683V2.9126C0.799805 2.62358 0.837338 2.33822 0.936523 2.0874C1.03612 1.83589 1.22151 1.56648 1.53906 1.42334C1.86518 1.27646 2.19675 1.32315 2.45801 1.43604C2.71079 1.54536 2.93385 1.72865 3.12598 1.93701L4.75195 3.70166L7.02344 1.23291V1.23193L7.12695 1.13135ZM5.73145 4.70459L5.73242 4.70557C5.2367 5.25719 4.41741 5.28312 3.88281 4.81299L3.78027 4.7124L2.2002 2.99756V10.9683C2.20066 12.5813 3.39556 13.795 4.75293 13.8003H11.25C12.0478 13.8003 12.6676 13.5162 13.0918 13.0562C13.4669 12.6491 13.7277 12.0611 13.7871 11.3081L13.7998 10.9751V2.99756L12.2197 4.7124L12.2188 4.71143C11.7226 5.25658 10.9094 5.28093 10.377 4.81299L10.2734 4.7124L7.99609 2.2417L5.73145 4.70459ZM8 6.75049C9.24264 6.75049 10.25 7.75785 10.25 9.00049C10.2497 10.2429 9.24248 11.2505 8 11.2505C6.75752 11.2505 5.75026 10.2429 5.75 9.00049C5.75 7.75785 6.75736 6.75049 8 6.75049ZM8 8.25049C7.58579 8.25049 7.25 8.58627 7.25 9.00049C7.25026 9.41448 7.58595 9.75049 8 9.75049C8.41405 9.75049 8.74974 9.41448 8.75 9.00049C8.75 8.58627 8.41421 8.25049 8 8.25049Z" fill="currentColor"/>
  </g>
  <defs>
  <clipPath id="clip0_397_12392">
  <rect width="16" height="16" fill="white"/>
  </clipPath>
  </defs>
  </svg>
  