<svg width="16" height="16" viewBox="0 0 16 16" fill="none" xmlns="http://www.w3.org/2000/svg">
    <path d="M8.80244 4.75002V7.69329L11.3187 9.16053C11.4455 9.23451 11.5368 9.3544 11.5726 9.49383C11.6084 9.63325 11.5857 9.78078 11.5096 9.90397C11.4335 10.0272 11.3101 10.1159 11.1667 10.1507C11.0232 10.1855 10.8714 10.1635 10.7447 10.0895L7.9581 8.46449C7.87563 8.41633 7.80739 8.34824 7.76002 8.26685C7.71265 8.18545 7.68777 8.09352 7.6878 8.00001V4.75002C7.6878 4.60636 7.74652 4.46858 7.85104 4.367C7.95555 4.26542 8.09731 4.20835 8.24512 4.20835C8.39293 4.20835 8.53469 4.26542 8.6392 4.367C8.74372 4.46858 8.80244 4.60636 8.80244 4.75002ZM8.24512 1.50002C7.36595 1.49789 6.49507 1.66525 5.68289 1.99241C4.87071 2.31957 4.13336 2.80004 3.5135 3.40601C3.00704 3.90434 2.557 4.38371 2.11463 4.88543V3.66668C2.11463 3.52303 2.05592 3.38525 1.9514 3.28367C1.84688 3.18209 1.70513 3.12502 1.55732 3.12502C1.40951 3.12502 1.26775 3.18209 1.16323 3.28367C1.05872 3.38525 1 3.52303 1 3.66668V6.37501C1 6.51867 1.05872 6.65645 1.16323 6.75803C1.26775 6.85961 1.40951 6.91668 1.55732 6.91668H4.3439C4.49171 6.91668 4.63347 6.85961 4.73798 6.75803C4.8425 6.65645 4.90122 6.51867 4.90122 6.37501C4.90122 6.23135 4.8425 6.09358 4.73798 5.992C4.63347 5.89042 4.49171 5.83335 4.3439 5.83335H2.74162C3.23972 5.26324 3.73573 4.72632 4.30141 4.16976C5.07597 3.41694 6.06163 2.90267 7.1352 2.6912C8.20878 2.47972 9.32267 2.58043 10.3377 2.98072C11.3527 3.38102 12.2239 4.06316 12.8423 4.94191C13.4607 5.82065 13.799 6.85704 13.8148 7.92157C13.8307 8.9861 13.5234 10.0316 12.9314 10.9273C12.3394 11.8231 11.4889 12.5294 10.4862 12.9581C9.48351 13.3868 8.37308 13.5188 7.29366 13.3375C6.21424 13.1563 5.2137 12.67 4.41705 11.9393C4.36381 11.8904 4.30117 11.8521 4.23273 11.8268C4.16428 11.8014 4.09136 11.7894 4.01813 11.7914C3.9449 11.7934 3.8728 11.8094 3.80594 11.8385C3.73907 11.8676 3.67876 11.9092 3.62845 11.9609C3.57813 12.0127 3.53879 12.0736 3.51268 12.1401C3.48657 12.2066 3.4742 12.2775 3.47627 12.3487C3.47834 12.4198 3.49481 12.4899 3.52475 12.5549C3.55468 12.6199 3.59749 12.6785 3.65074 12.7274C4.44453 13.4554 5.4096 13.9836 6.46171 14.2658C7.51382 14.548 8.621 14.5756 9.68663 14.3463C10.7523 14.1169 11.7439 13.6376 12.5751 12.9501C13.4063 12.2626 14.0518 11.3879 14.4551 10.4022C14.8585 9.41648 15.0075 8.34983 14.8891 7.29529C14.7708 6.24076 14.3887 5.2304 13.7762 4.35239C13.1638 3.47438 12.3395 2.7554 11.3754 2.25821C10.4112 1.76101 9.33656 1.50071 8.24512 1.50002Z" fill="currentColor"/>
    </svg>
    