<svg width="16" height="16" viewBox="0 0 16 16" fill="none" xmlns="http://www.w3.org/2000/svg">
    <g clip-path="url(#clip0_542_13490)">
    <path d="M14.498 7.32227C14.9122 7.32237 15.248 7.65812 15.248 8.07227C15.248 10.0197 14.5781 11.82 13.3125 13.1377C12.0418 14.4606 10.2155 15.25 7.99902 15.25C5.78251 15.25 3.95623 14.4605 2.68555 13.1377C1.41998 11.82 0.750042 10.0197 0.75 8.07227C0.75 7.65805 1.08579 7.32227 1.5 7.32227C1.91412 7.32237 2.25 7.65812 2.25 8.07227C2.25004 9.67611 2.79916 11.0903 3.76758 12.0986C4.73092 13.1014 6.15412 13.75 7.99902 13.75C9.84394 13.75 11.2672 13.1015 12.2305 12.0986C13.1989 11.0903 13.748 9.67611 13.748 8.07227C13.748 7.6581 14.0839 7.32234 14.498 7.32227ZM7.90137 0.75C8.31558 0.75 8.65137 1.08579 8.65137 1.5V7.92871L9.45215 7.1377L9.50977 7.08691C9.80563 6.84834 10.2396 6.86756 10.5127 7.14355C10.7857 7.41967 10.8005 7.85424 10.5586 8.14746L10.5068 8.2041L8.42773 10.2607C8.15383 10.5316 7.72321 10.5485 7.42969 10.3115L7.37305 10.2607L5.29297 8.2041L5.24121 8.14746C4.99929 7.85421 5.01403 7.41966 5.28711 7.14355C5.56017 6.86757 5.99418 6.84835 6.29004 7.08691L6.34766 7.1377L7.15137 7.93164V1.5C7.15137 1.08579 7.48715 0.75 7.90137 0.75Z" fill="currentColor"/>
    </g>
    <defs>
    <clipPath id="clip0_542_13490">
    <rect width="16" height="16" fill="white"/>
    </clipPath>
    </defs>
    </svg>
    