<svg id="Layer_2" xmlns="http://www.w3.org/2000/svg" version="1.1" viewBox="0 0 1000 500">
  <defs>
    <style>
      .st0 {
        fill: #fafbfc;
      }

      .st1, .st2 {
        fill: #fff;
      }

      .st3, .st4 {
        fill: #edeff3;
      }

      .st2, .st5 {
        fill-rule: evenodd;
      }

      .st6 {
        fill: #1f2937;
      }

      .st7 {
        fill: #dee2e9;
      }

      .st4 {
        stroke: #edeff3;
      }

      .st4, .st8 {
        stroke-width: .2px;
      }

      .st5 {
        fill: #c9ced6;
      }

      .st9 {
        isolation: isolate;
        opacity: .3;
      }

      .st8 {
        fill: #d1d5db;
        stroke: #d1d5db;
      }
    </style>
  </defs>
  <g id="Layer_1-2">
    <g>
      <rect class="st1" width="1000" height="500"/>
      <g>
        <g>
          <rect class="st1" x="31.8" y="31.8" width="936.5" height="190.7" rx="9" ry="9"/>
          <path class="st8" d="M959.2,223H40.8c-5.2,0-9.5-4.3-9.5-9.5V40.8c0-5.2,4.3-9.5,9.5-9.5h918.5c5.2,0,9.5,4.3,9.5,9.5v172.7c0,5.2-4.3,9.5-9.5,9.5h0ZM40.8,32.2c-4.7,0-8.5,3.8-8.5,8.5v172.7c0,4.7,3.8,8.5,8.5,8.5h918.5c4.7,0,8.5-3.8,8.5-8.5V40.8c0-4.7-3.8-8.5-8.5-8.5H40.8Z"/>
        </g>
        <g>
          <g>
            <rect class="st0" x="57.3" y="119.9" width="430.1" height="77.5" rx="9" ry="9"/>
            <path class="st4" d="M478.5,197.9H66.3c-5.2,0-9.5-4.3-9.5-9.5v-59.5c0-5.2,4.3-9.5,9.5-9.5h412.1c5.2,0,9.5,4.3,9.5,9.5v59.5c0,5.2-4.3,9.5-9.5,9.5ZM66.3,120.4c-4.7,0-8.5,3.8-8.5,8.5v59.5c0,4.7,3.8,8.5,8.5,8.5h412.1c4.7,0,8.5-3.8,8.5-8.5v-59.5c0-4.7-3.8-8.5-8.5-8.5H66.3Z"/>
          </g>
          <g id="Vrstva_1">
            <path class="st5" d="M82.3,134.4h21.7l18.4,19.2v20.9c0,4.6-3.8,8.4-8.4,8.4h-31.6c-4.7,0-8.4-3.8-8.4-8.4v-31.6c0-4.7,3.8-8.4,8.4-8.4h0Z"/>
            <g>
              <g class="st9">
                <path class="st2" d="M103.9,134.4v19h18.4l-18.4-19Z"/>
              </g>
              <path class="st1" d="M91.7,168.1v-4.4c0-.5-.4-.9-.9-.9h-2.4c-.5,0-.9.4-.9.9v4.4l-1.3,3.9c-.4,1.1-.2,2.3.5,3.2.7.9,1.8,1.5,2.9,1.5s2.2-.6,2.9-1.5.9-2.1.5-3.2l-1.3-3.9h0ZM91.2,174.2c-.7,1-2.3,1-3,0-.3-.5-.4-1.1-.2-1.7l.4-1.3h2.6l.5,1.3c.2.6,0,1.2-.3,1.7ZM84.3,139v2.4c0,.5.4.9.9.9h3.2v3.6h-3.2c-.5,0-.9.4-.9.9v1.9c0,.5.4.9.9.9h3.2v3.6h-3.2c-.5,0-.9.4-.9.9v1.9c0,.5.4.9.9.9h3.2v2.8c0,.5.4.9.9.9h4.8c.5,0,.9-.4.9-.9v-1.9c0-.5-.4-.9-.9-.9h-3.3v-3.6h3.3c.5,0,.9-.4.9-.9v-1.9c0-.5-.4-.9-.9-.9h-3.3v-3.6h3.3c.5,0,.9-.4.9-.9v-1.9c0-.5-.4-.9-.9-.9h-3.3v-3.3h-6.5Z"/>
            </g>
          </g>
          <rect class="st3" x="136.8" y="151.9" width="160.5" height="13.6" rx="6.8" ry="6.8"/>
        </g>
        <g>
          <g>
            <rect class="st0" x="512.5" y="119.9" width="430.6" height="77.5" rx="9" ry="9"/>
            <path class="st4" d="M934.2,197.9h-412.6c-5.2,0-9.5-4.3-9.5-9.5v-59.5c0-5.2,4.3-9.5,9.5-9.5h412.6c5.2,0,9.5,4.3,9.5,9.5v59.5c0,5.2-4.3,9.5-9.5,9.5ZM521.5,120.4c-4.7,0-8.5,3.8-8.5,8.5v59.5c0,4.7,3.8,8.5,8.5,8.5h412.6c4.7,0,8.5-3.8,8.5-8.5v-59.5c0-4.7-3.8-8.5-8.5-8.5h-412.6Z"/>
          </g>
          <g id="Vrstva_1-2">
            <path class="st5" d="M537.5,134.4h21.7l18.4,19.2v20.9c0,4.6-3.8,8.4-8.4,8.4h-31.6c-4.7,0-8.4-3.8-8.4-8.4v-31.6c0-4.7,3.8-8.4,8.4-8.4h0Z"/>
            <g>
              <g class="st9">
                <path class="st2" d="M559.2,134.4v19h18.4l-18.4-19Z"/>
              </g>
              <path class="st1" d="M546.9,168.1v-4.4c0-.5-.4-.9-.9-.9h-2.4c-.5,0-.9.4-.9.9v4.4l-1.3,3.9c-.4,1.1-.2,2.3.5,3.2.7.9,1.8,1.5,2.9,1.5s2.2-.6,2.9-1.5.9-2.1.5-3.2l-1.3-3.9h0ZM546.3,174.2c-.7,1-2.3,1-3,0-.3-.5-.4-1.1-.2-1.7l.4-1.3h2.6l.5,1.3c.2.6,0,1.2-.3,1.7ZM539.5,139v2.4c0,.5.4.9.9.9h3.2v3.6h-3.2c-.5,0-.9.4-.9.9v1.9c0,.5.4.9.9.9h3.2v3.6h-3.2c-.5,0-.9.4-.9.9v1.9c0,.5.4.9.9.9h3.2v2.8c0,.5.4.9.9.9h4.8c.5,0,.9-.4.9-.9v-1.9c0-.5-.4-.9-.9-.9h-3.3v-3.6h3.3c.5,0,.9-.4.9-.9v-1.9c0-.5-.4-.9-.9-.9h-3.3v-3.6h3.3c.5,0,.9-.4.9-.9v-1.9c0-.5-.4-.9-.9-.9h-3.3v-3.3h-6.5Z"/>
            </g>
          </g>
          <rect class="st3" x="615.8" y="151.9" width="232.4" height="13.6" rx="6.8" ry="6.8"/>
        </g>
        <g>
          <g>
            <rect class="st1" x="31.8" y="236.9" width="936.5" height="67.5" rx="9" ry="9"/>
            <path class="st4" d="M959.2,304.9H40.8c-5.2,0-9.5-4.3-9.5-9.5v-49.5c0-5.2,4.3-9.5,9.5-9.5h918.5c5.2,0,9.5,4.3,9.5,9.5v49.5c0,5.2-4.3,9.5-9.5,9.5h0ZM40.8,237.4c-4.7,0-8.5,3.8-8.5,8.5v49.5c0,4.7,3.8,8.5,8.5,8.5h918.5c4.7,0,8.5-3.8,8.5-8.5v-49.5c0-4.7-3.8-8.5-8.5-8.5H40.8Z"/>
          </g>
          <rect class="st3" x="57.3" y="264.6" width="120.4" height="13.6" rx="6.8" ry="6.8"/>
          <rect class="st4" x="826.6" y="261.2" width="1" height="18.9"/>
          <path class="st6" d="M850.8,280v-.2c0-2.7,1.2-5.5,5.7-8.7,2.8-2,3.7-2.6,3.7-4.6s-1.1-3.2-3.2-3.2-3.2,1.3-3.5,3.3h-2.7c.3-3.1,2.3-5.6,6.3-5.6s6,2.8,6,5.3-1.2,4-4.8,6.5c-2.8,2-4,3.6-4.3,4.9h9.8l-.4,2.3h-12.6,0ZM873.8,261.3h12.2v2.4h-9.5v5.8h8.9v2.4h-8.9v8.2h-2.7v-18.8h0ZM892,261.3v18.8h-2.8v-18.8h2.8ZM897,261.3h2.8v16.4h9.7l-.4,2.4h-12.1v-18.8h0ZM924.1,271.4h-9.3v6.3h10.2l-.3,2.4h-12.5v-18.8h12.4v2.4h-9.7v5.4h9.3v2.4h0ZM930,274.8c.5,2.2,2,3.3,4.6,3.3s3.9-1.3,3.9-3-.9-2.8-4.6-3.7c-4.5-1.1-6-2.7-6-5.3s2.1-5.1,6.4-5.1,6.4,2.6,6.7,5.1h-2.8c-.3-1.6-1.3-2.9-4-2.9s-3.4,1-3.4,2.7,1,2.3,4.2,3.1c5.4,1.3,6.4,3.4,6.4,5.8s-2.3,5.5-7,5.5-6.8-2.5-7.2-5.5h2.8,0Z"/>
        </g>
        <g>
          <g>
            <rect class="st1" x="31.8" y="318.9" width="936.5" height="67.5" rx="9" ry="9"/>
            <path class="st4" d="M959.2,386.8H40.8c-5.2,0-9.5-4.3-9.5-9.5v-49.5c0-5.2,4.3-9.5,9.5-9.5h918.5c5.2,0,9.5,4.3,9.5,9.5v49.5c0,5.2-4.3,9.5-9.5,9.5h0ZM40.8,319.4c-4.7,0-8.5,3.8-8.5,8.5v49.5c0,4.7,3.8,8.5,8.5,8.5h918.5c4.7,0,8.5-3.8,8.5-8.5v-49.5c0-4.7-3.8-8.5-8.5-8.5H40.8Z"/>
          </g>
          <rect class="st3" x="57.3" y="346.6" width="175.1" height="13.6" rx="6.8" ry="6.8"/>
          <rect class="st4" x="826.6" y="343.1" width="1" height="18.9"/>
          <path class="st6" d="M859.3,362v-15.4c-.8.6-2.9,1.2-3.9,1.3v-2.1c1.7-.4,3.6-1.5,4.6-2.6h2v18.8h-2.8ZM873.8,343.2h12.2v2.4h-9.5v5.8h8.9v2.4h-8.9v8.2h-2.7v-18.8h0ZM892,343.2v18.8h-2.8v-18.8h2.8ZM897,343.2h2.8v16.4h9.7l-.4,2.4h-12.1v-18.8h0ZM924.1,353.3h-9.3v6.3h10.2l-.3,2.4h-12.5v-18.8h12.4v2.4h-9.7v5.4h9.3v2.4h0ZM930,356.7c.5,2.2,2,3.3,4.6,3.3s3.9-1.3,3.9-3-.9-2.8-4.6-3.7c-4.5-1.1-6-2.7-6-5.3s2.1-5.1,6.4-5.1,6.4,2.6,6.7,5.1h-2.8c-.3-1.6-1.3-2.9-4-2.9s-3.4,1-3.4,2.7,1,2.3,4.2,3.1c5.4,1.3,6.4,3.4,6.4,5.8s-2.3,5.5-7,5.5-6.8-2.5-7.2-5.5h2.8,0Z"/>
        </g>
        <g>
          <g>
            <rect class="st1" x="31.8" y="400.8" width="936.5" height="67.5" rx="9" ry="9"/>
            <path class="st4" d="M959.2,468.8H40.8c-5.2,0-9.5-4.3-9.5-9.5v-49.5c0-5.2,4.3-9.5,9.5-9.5h918.5c5.2,0,9.5,4.3,9.5,9.5v49.5c0,5.2-4.3,9.5-9.5,9.5h0ZM40.8,401.3c-4.7,0-8.5,3.8-8.5,8.5v49.5c0,4.7,3.8,8.5,8.5,8.5h918.5c4.7,0,8.5-3.8,8.5-8.5v-49.5c0-4.7-3.8-8.5-8.5-8.5H40.8Z"/>
          </g>
          <rect class="st3" x="57.3" y="428.5" width="175.1" height="13.6" rx="6.8" ry="6.8"/>
          <rect class="st4" x="826.6" y="425.1" width="1" height="18.9"/>
          <path class="st6" d="M863.2,434.4c0,4.5-1.4,9.8-6.7,9.8s-6.7-4.8-6.7-9.7,1.7-9.6,6.8-9.6,6.6,4.8,6.6,9.5h0ZM852.7,434.5c0,3.6.8,7.4,3.8,7.4s3.8-3.7,3.8-7.5-.7-7.3-3.8-7.3-3.9,3.3-3.9,7.4ZM873.8,425.1h12.2v2.4h-9.5v5.8h8.9v2.4h-8.9v8.2h-2.7v-18.8h0ZM892,425.1v18.8h-2.8v-18.8h2.8ZM897,425.1h2.8v16.4h9.7l-.4,2.4h-12.1v-18.8h0ZM924.1,435.3h-9.3v6.3h10.2l-.3,2.4h-12.5v-18.8h12.4v2.4h-9.7v5.4h9.3v2.4h0ZM930,438.6c.5,2.2,2,3.3,4.6,3.3s3.9-1.3,3.9-3-.9-2.8-4.6-3.7c-4.5-1.1-6-2.7-6-5.3s2.1-5.1,6.4-5.1,6.4,2.6,6.7,5.1h-2.8c-.3-1.6-1.3-2.9-4-2.9s-3.4,1-3.4,2.7,1,2.3,4.2,3.1c5.4,1.3,6.4,3.4,6.4,5.8s-2.3,5.5-7,5.5-6.8-2.5-7.2-5.5h2.8,0Z"/>
        </g>
      </g>
      <g>
        <path class="st6" d="M72.8,76h-2.1c-.1-.4-.2-1.2-.2-2.4-.9,1.3-2.5,2.7-5.8,2.7-5.4,0-8.3-4.1-8.3-9.4s3.1-9.8,8.8-9.8,7.2,2.4,7.7,5.8h-2.8c-.6-1.9-2-3.5-5-3.5-4.3,0-5.9,3.4-5.9,7.4s1.7,7.3,5.8,7.3,5-2.7,5-5.6v-.2h-5.1v-2.4h7.8v10.2h0Z"/>
        <path class="st6" d="M78.6,69.7c0,2.6,1.3,4.5,3.6,4.5s2.7-1,3.1-2h2.7c-.5,1.8-2,4.2-5.9,4.2s-6.2-3.5-6.2-7,2.1-7.3,6.3-7.3,6,3.5,6,6.6,0,.8,0,1.1h-9.6ZM85.5,67.9c0-2.1-1.1-3.9-3.3-3.9s-3.3,1.6-3.5,3.9c0,0,6.8,0,6.8,0Z"/>
        <path class="st6" d="M91.2,65.8c0-1.2,0-2.4,0-3.5h2.6c0,.4.1,1.8,0,2.2.5-1.1,1.7-2.5,4.3-2.5s4.6,1.6,4.6,5.2v8.8h-2.7v-8.5c0-2-.8-3.3-2.8-3.3s-3.4,1.8-3.4,4.5v7.3h-2.7v-10.3h0Z"/>
        <path class="st6" d="M108.3,69.7c0,2.6,1.3,4.5,3.6,4.5s2.7-1,3.1-2h2.7c-.5,1.8-2,4.2-5.9,4.2s-6.2-3.5-6.2-7,2.1-7.3,6.3-7.3,6,3.5,6,6.6,0,.8,0,1.1h-9.6,0ZM115.2,67.9c0-2.1-1.1-3.9-3.3-3.9s-3.3,1.6-3.5,3.9c0,0,6.8,0,6.8,0Z"/>
        <path class="st6" d="M120.9,66c0-1.8,0-2.9,0-3.7h2.6c0,.4,0,1.5,0,2.7.7-1.8,2.3-3,4.6-3v2.6c-2.8,0-4.6,1.4-4.6,4.9v6.5h-2.7v-10h0Z"/>
        <path class="st6" d="M140.6,72.9c0,1.3.1,2.7.2,3.1h-2.5c-.1-.3-.2-1-.2-1.7-.5.9-1.6,2-4.2,2s-4.6-2.1-4.6-4.2c0-3.1,2.4-4.5,6.5-4.5h2.3v-1.1c0-1.2-.4-2.5-2.8-2.5s-2.5,1.1-2.8,2.1h-2.6c.2-2,1.4-4.2,5.4-4.1,3.4,0,5.3,1.4,5.3,4.5v6.4h0ZM138,69.4h-2.1c-2.6,0-4,.8-4,2.6s.9,2.3,2.5,2.3c3.1,0,3.6-2.1,3.6-4.5v-.4Z"/>
        <path class="st6" d="M144.5,76v-19.8h2.6v19.8h-2.6Z"/>
        <path class="st6" d="M161.1,70.7l-1.9,5.4h-2.8l6.6-18.8h3.4l6.9,18.8h-2.9l-2-5.4h-7.4ZM167.8,68.3c-1.7-4.7-2.7-7.3-3.1-8.8h0c-.5,1.6-1.5,4.8-2.9,8.8h6Z"/>
        <path class="st6" d="M173.5,62.3h2.3v-4h2.6v4h3v2.1h-3v7.8c0,1.3.3,1.9,1.6,1.9s.8,0,1.1,0v1.9c-.6.2-1.5.2-2.1.2-2.2,0-3.2-1.2-3.2-3.5v-8.3h-2.3v-2.1h0Z"/>
        <path class="st6" d="M181.8,62.3h2.3v-4h2.6v4h3v2.1h-3v7.8c0,1.3.3,1.9,1.6,1.9s.8,0,1.1,0v1.9c-.6.2-1.5.2-2.1.2-2.2,0-3.2-1.2-3.2-3.5v-8.3h-2.3v-2.1h0Z"/>
        <path class="st6" d="M202.7,72.9c0,1.3.1,2.7.2,3.1h-2.5c-.1-.3-.2-1-.2-1.7-.5.9-1.6,2-4.2,2s-4.6-2.1-4.6-4.2c0-3.1,2.4-4.5,6.5-4.5h2.3v-1.1c0-1.2-.4-2.5-2.8-2.5s-2.5,1.1-2.8,2.1h-2.6c.2-2,1.4-4.2,5.4-4.1,3.4,0,5.3,1.4,5.3,4.5v6.4ZM200.1,69.4h-2.1c-2.6,0-4,.8-4,2.6s.9,2.3,2.5,2.3c3.1,0,3.6-2.1,3.6-4.5v-.4Z"/>
        <path class="st6" d="M217.6,71.8c-.6,2.3-2.2,4.6-5.8,4.6s-6.2-2.8-6.2-7.1,2.2-7.3,6.4-7.3,5.4,2.9,5.6,4.6h-2.6c-.3-1.3-1.1-2.5-3-2.5s-3.6,2-3.6,5,1.3,5,3.5,5,2.6-.9,3.1-2.4h2.6Z"/>
        <path class="st6" d="M223,56.2v8c.7-1.2,1.9-2.3,4.2-2.3s4.6,1.3,4.6,5.3v8.8h-2.6v-8.3c0-2.2-.9-3.5-2.8-3.5s-3.4,1.6-3.4,4.3v7.5h-2.6v-19.8h2.6Z"/>
        <path class="st6" d="M235.8,65.8c0-1.2,0-2.4,0-3.5h2.6c0,.4.1,1.4.1,2,.6-1.2,1.8-2.3,4-2.3s3.2,1,3.8,2.4c.8-1.3,2-2.4,4.4-2.4s4.3,1.3,4.3,5v9h-2.6v-8.7c0-1.5-.6-3.1-2.6-3.1s-3,1.6-3,3.9v7.9h-2.6v-8.6c0-1.7-.5-3.2-2.5-3.2s-3.1,1.6-3.1,4.2v7.6h-2.6v-10.2h0Z"/>
        <path class="st6" d="M260.5,69.7c0,2.6,1.3,4.5,3.6,4.5s2.7-1,3.1-2h2.7c-.5,1.8-2,4.2-5.9,4.2s-6.2-3.5-6.2-7,2.1-7.3,6.3-7.3,6,3.5,6,6.6,0,.8,0,1.1h-9.6ZM267.5,67.9c0-2.1-1.1-3.9-3.3-3.9s-3.3,1.6-3.5,3.9h6.8Z"/>
        <path class="st6" d="M273.1,65.8c0-1.2,0-2.4,0-3.5h2.6c0,.4.1,1.8.1,2.2.5-1.1,1.6-2.5,4.3-2.5s4.6,1.6,4.6,5.2v8.8h-2.6v-8.5c0-2-.8-3.3-2.8-3.3s-3.4,1.8-3.4,4.5v7.3h-2.6v-10.3h0Z"/>
        <path class="st6" d="M286.7,62.3h2.3v-4h2.6v4h3v2.1h-3v7.8c0,1.3.3,1.9,1.5,1.9s.8,0,1.1,0v1.9c-.6.2-1.5.2-2.1.2-2.2,0-3.2-1.2-3.2-3.5v-8.3h-2.3v-2.1h0Z"/>
      </g>
      <path class="st7" d="M325,53.7h43.6c7,0,12.7,5.7,12.7,12.7h0c0,7-5.7,12.7-12.7,12.7h-43.6c-7,0-12.7-5.7-12.7-12.7h0c0-7,5.7-12.7,12.7-12.7Z"/>
    </g>
  </g>
</svg>