<svg width="16" height="16" viewBox="0 0 16 16" fill="none" xmlns="http://www.w3.org/2000/svg">
    <path d="M8 1.5C10.7552 1.50017 13.2377 3.1365 14.917 5.79492L15.0586 6.04199C15.3636 6.63449 15.499 7.33435 15.499 7.99902C15.499 8.75821 15.3212 9.56255 14.917 10.2012L14.918 10.2021C13.2387 12.861 10.7554 14.4979 8 14.498C5.24438 14.498 2.76043 12.8611 1.08105 10.2021L1.08203 10.2012C0.677866 9.56256 0.500034 8.75819 0.5 7.99902C0.5 7.23931 0.677276 6.43379 1.08203 5.79492C2.7614 3.13633 5.2446 1.5 8 1.5ZM8 3C5.88577 3 3.82946 4.25356 2.34961 6.59668L2.34863 6.59766C2.13288 6.93832 2 7.44602 2 7.99902C2.00003 8.4829 2.10242 8.9318 2.27246 9.26465L2.34863 9.40039L2.34961 9.40137L2.63379 9.82812C4.08672 11.8963 6.01799 12.998 8 12.998C10.114 12.9979 12.1697 11.7442 13.6494 9.40137L13.6504 9.40039L13.7266 9.26465C13.8966 8.93179 13.999 8.48293 13.999 7.99902C13.999 7.44599 13.8662 6.93832 13.6504 6.59766L13.6494 6.59668C12.1697 4.25372 10.1141 3.00017 8 3ZM8 4.76562C9.78491 4.76578 11.2188 6.21829 11.2188 8.00293C11.2185 9.78732 9.78473 11.2401 8 11.2402C6.21514 11.2402 4.78057 9.78741 4.78027 8.00293C4.78027 6.21819 6.21495 4.76562 8 4.76562ZM8 6.26562C7.05349 6.26562 6.28027 7.03648 6.28027 8.00293C6.28057 8.96912 7.05367 9.74023 8 9.74023C8.9462 9.74008 9.71845 8.96902 9.71875 8.00293C9.71875 7.03657 8.94638 6.26578 8 6.26562Z" fill="currentColor"/>
    </svg>
    