<svg
        width="16"
        height="16"
        viewBox="0 0 16 16"
        fill="none"
        xmlns="http://www.w3.org/2000/svg"
      >
        <g clip-path="url(#clip0_397_11631)">
          <path
            d="M11.7012 8.80029C13.3031 8.80059 14.6016 10.0997 14.6016 11.7017C14.6014 12.2583 14.4432 12.7783 14.1709 13.2202L15.002 14.0493L15.0889 14.1548C15.237 14.3787 15.2375 14.6727 15.0898 14.897L15.0039 15.0024C14.7741 15.2329 14.418 15.2623 14.1562 15.0903L14.0508 15.0044L13.2168 14.1733C12.7755 14.4445 12.2566 14.6019 11.7012 14.6021C10.0992 14.6021 8.80014 13.3035 8.7998 11.7017C8.7998 10.0995 10.099 8.80029 11.7012 8.80029ZM9.90625 0.825684L9.94434 0.82666L10.6533 0.847168C11.3301 0.869672 11.9132 0.903438 12.4072 0.993652L12.6641 1.04834C13.2516 1.18879 13.7571 1.43684 14.1924 1.89502L14.3652 2.09424C14.7425 2.56802 14.9361 3.10999 15.04 3.73779L15.0771 3.99854C15.1331 4.44579 15.1574 4.95589 15.1729 5.53174L15.1885 6.25439V6.25537L15.1895 6.29443L15.2002 7.65869C15.2 8.0426 14.9004 8.37135 14.5117 8.37158C14.1228 8.37158 13.8235 8.04274 13.8232 7.65869L13.8135 6.32471C13.7979 5.56136 13.782 4.97432 13.7422 4.49854L10.3535 6.51709C9.51068 7.01891 8.78367 7.34605 8 7.34619C7.31414 7.34619 6.67159 7.09568 5.95703 6.69678L5.64648 6.51709L2.25684 4.49854C2.23085 4.8079 2.21434 5.16419 2.20312 5.58545L2.18652 6.32471C2.17304 6.98764 2.17304 7.64714 2.18652 8.31006L2.20312 9.04932C2.22123 9.729 2.24841 10.24 2.31738 10.6567L2.35254 10.8433C2.44135 11.2553 2.57779 11.5183 2.79004 11.7417L2.88281 11.8315C3.10596 12.0303 3.38606 12.1573 3.83203 12.2388L4.04297 12.272C4.55587 12.3426 5.21282 12.3611 6.12793 12.3853L6.50977 12.3911C6.61753 12.3912 6.71363 12.3896 6.81738 12.3882L7.35156 12.3853L7.49316 12.4009C7.81032 12.4706 8.03831 12.7642 8.03711 13.1001C8.0354 13.46 7.77114 13.7701 7.41797 13.8062L7.3457 13.8101C7.15816 13.8092 7.00696 13.8093 6.86133 13.811L6.8623 13.812C6.63337 13.8149 6.41628 13.8176 6.09375 13.8091H6.09277L6.05566 13.8081C5.19189 13.7854 4.45794 13.7671 3.84668 13.6821L3.59277 13.6411C2.98142 13.5294 2.45427 13.3243 1.99902 12.9243L1.80762 12.7407C1.37554 12.2858 1.14215 11.7651 1.01074 11.1616L0.959961 10.8979C0.876049 10.3911 0.845668 9.79487 0.827148 9.104L0.811523 8.38037L0.810547 8.34033C0.796658 7.65737 0.796663 6.9774 0.810547 6.29443L0.811523 6.25439L0.827148 5.53174C0.845653 4.84078 0.876105 4.24469 0.959961 3.73779L1.01074 3.47314C1.1421 2.86974 1.37572 2.34985 1.80762 1.89502L1.99902 1.71143C2.45443 1.31102 2.9811 1.10537 3.59277 0.993652L3.84668 0.953613C4.458 0.868587 5.19181 0.849411 6.05566 0.82666L6.09375 0.825684L7.04785 0.807129C8.00054 0.794536 8.95004 0.800488 9.90625 0.825684ZM11.7012 10.1479C10.8432 10.1479 10.1475 10.8436 10.1475 11.7017C10.1478 12.5594 10.8434 13.2554 11.7012 13.2554C12.5587 13.2551 13.2546 12.5592 13.2549 11.7017C13.2549 10.8438 12.5589 10.1482 11.7012 10.1479ZM7.06543 2.23096L6.12793 2.24951C5.21277 2.27362 4.55588 2.29216 4.04297 2.36279L3.83203 2.39697C3.38595 2.47846 3.10599 2.6044 2.88281 2.80322L2.79004 2.89307C2.73389 2.95219 2.68278 3.01389 2.63672 3.08057L6.33301 5.28271L6.61816 5.44678C7.24907 5.79761 7.64662 5.92139 8 5.92139C8.40367 5.92125 8.86555 5.75989 9.66699 5.28271L13.3633 3.08057C13.3422 3.04999 13.32 3.02044 13.2969 2.9917L13.21 2.89307C13.0008 2.67293 12.7502 2.52895 12.3496 2.43408L12.168 2.39697C11.7616 2.32274 11.2613 2.29206 10.5957 2.27002L9.87207 2.24951C8.9333 2.22477 8.00072 2.21859 7.06543 2.23096Z"
            fill="currentColor"
          />
        </g>
        <defs>
          <clipPath id="clip0_397_11631">
            <rect width="16" height="16" fill="white" />
          </clipPath>
        </defs>
      </svg>