<svg width="16" height="16" viewBox="0 0 16 16" fill="none" xmlns="http://www.w3.org/2000/svg">
    <path d="M12.9355 2.17763C12.6458 1.93183 12.2115 1.94009 11.9316 2.20888C11.6518 2.47807 11.6258 2.91261 11.8603 3.21181L11.9101 3.26943L12.7441 4.13564L5.4951 4.17861V4.17958C2.84776 4.1823 0.750105 6.40789 0.749978 9.08876C0.750142 11.7713 2.85039 13.9989 5.49998 13.9989H11.9004L11.9765 13.995C12.3546 13.9566 12.6502 13.6371 12.6504 13.2489C12.6502 12.8608 12.3546 12.5412 11.9765 12.5028L11.9004 12.4989H5.49998C3.73381 12.4989 2.25014 10.9989 2.24998 9.08876C2.2501 7.17858 3.73379 5.67861 5.49998 5.67861H5.50388L12.7324 5.63564L11.9101 6.49013C11.6233 6.78874 11.6331 7.26369 11.9316 7.55068C12.2302 7.83737 12.7052 7.82851 12.9922 7.53017L15.04 5.39931C15.3187 5.10909 15.3187 4.65048 15.04 4.36025L12.9922 2.23037L12.9355 2.17763Z" fill="currentColor"/>
    </svg>
    