<svg width="16" height="16" viewBox="0 0 16 16" fill="none" xmlns="http://www.w3.org/2000/svg">
    <path d="M6.58301 0.750768C6.85867 0.44168 7.33245 0.414604 7.6416 0.690221C7.95056 0.965898 7.97773 1.43971 7.70215 1.74881L7.18066 2.3328C7.44448 2.30465 7.71756 2.28983 8 2.28983C11.7114 2.29003 14.749 5.22916 14.749 8.8953C14.7488 12.5612 11.7112 15.5006 8 15.5008C4.28859 15.5008 1.25027 12.5613 1.25 8.8953C1.25 7.53543 1.6729 6.26737 2.39062 5.21659C2.62427 4.87458 3.09157 4.78667 3.43359 5.0203C3.77549 5.25398 3.86349 5.72129 3.62988 6.06327C3.07455 6.87635 2.75 7.85114 2.75 8.8953C2.75027 11.6987 5.08239 14.0008 8 14.0008C10.9174 14.0006 13.2488 11.6986 13.249 8.8953C13.249 6.0918 10.9176 3.79003 8 3.78983C7.64023 3.78983 7.29861 3.82048 6.97363 3.87479L7.91113 4.54374C8.24821 4.78422 8.32631 5.25243 8.08594 5.58964C7.84548 5.92671 7.37725 6.00571 7.04004 5.76542L4.70801 4.10233L4.64844 4.05546C4.64499 4.05243 4.64205 4.04876 4.63867 4.04569C4.61239 4.02174 4.5885 3.99613 4.56641 3.96952C4.55869 3.9602 4.55116 3.95083 4.54395 3.9412C4.5384 3.93381 4.53454 3.9253 4.5293 3.91776C4.50872 3.88805 4.48953 3.85796 4.47363 3.82596C4.46413 3.80691 4.45701 3.78703 4.44922 3.76737C4.43926 3.74216 4.42904 3.71725 4.42188 3.6912C4.41629 3.67093 4.41304 3.65028 4.40918 3.62967C4.40499 3.60726 4.40058 3.58501 4.39844 3.56229C4.39595 3.53595 4.39619 3.50965 4.39648 3.48319C4.39672 3.46232 4.39646 3.44154 4.39844 3.42069C4.4007 3.39675 4.40461 3.37311 4.40918 3.3494C4.41363 3.32641 4.41912 3.3037 4.42578 3.28104C4.43226 3.25893 4.43967 3.2372 4.44824 3.21561C4.45773 3.19177 4.46837 3.16839 4.48047 3.1453C4.50848 3.09179 4.54198 3.0401 4.58398 2.99296L6.58301 0.750768Z" fill="currentColor"/>
    </svg>
    