<svg
        width="16"
        height="16"
        viewBox="0 0 16 16"
        fill="currentColor"
        xmlns="http://www.w3.org/2000/svg"
      >
        <path d="M8.17285 0.00585938C9.03682 0.0620426 9.87886 0.540311 11.4639 1.44141L12.0361 1.7666C13.7267 2.72769 14.572 3.20847 15.0361 4C15.5002 4.79151 15.5 5.75271 15.5 7.6748V8.3252L15.4932 9.59863C15.4714 10.7171 15.3842 11.4063 15.0361 12L14.9443 12.1445C14.4629 12.8532 13.6212 13.3322 12.0361 14.2334L11.4639 14.5586L10.3398 15.1895C9.3456 15.7299 8.69606 16 8 16L7.82715 15.9941C7.19359 15.9529 6.57174 15.685 5.66016 15.1895L4.53613 14.5586L3.96387 14.2334C2.37877 13.3322 1.53708 12.8532 1.05566 12.1445L0.963867 12C0.61581 11.4063 0.52858 10.7171 0.506836 9.59863L0.5 8.3252V7.6748C0.5 5.87251 0.500251 4.91527 0.882812 4.15039L0.963867 4C1.31195 3.40633 1.8749 2.98792 2.84766 2.41016L3.96387 1.7666L4.53613 1.44141C6.22653 0.480392 7.07185 0 8 0L8.17285 0.00585938ZM8 1.5C7.81933 1.5 7.59145 1.54027 7.16504 1.73047C6.93674 1.83231 6.68217 1.96229 6.37598 2.12891L5.27734 2.74609L4.70508 3.07031C3.83457 3.56521 3.27602 3.8857 2.86914 4.17285C2.48859 4.44144 2.34349 4.61266 2.25781 4.75879C2.17292 4.90364 2.0962 5.10909 2.05078 5.5625C2.02636 5.80645 2.01337 6.08727 2.00684 6.43066L2 7.6748V8.3252C2 9.31587 2.00196 9.94982 2.05078 10.4375C2.0962 10.8909 2.17292 11.0964 2.25781 11.2412C2.34349 11.3873 2.48858 11.5586 2.86914 11.8271C3.27602 12.1143 3.83457 12.4348 4.70508 12.9297L5.27734 13.2539L6.37598 13.8711C6.68217 14.0377 6.93674 14.1677 7.16504 14.2695C7.59144 14.4597 7.81933 14.5 8 14.5C8.18067 14.5 8.40856 14.4597 8.83496 14.2695C9.29142 14.0659 9.85228 13.7487 10.7227 13.2539L11.2949 12.9297L12.3867 12.3008C12.6862 12.1231 12.9274 11.9707 13.1309 11.8271C13.5114 11.5586 13.6565 11.3873 13.7422 11.2412C13.8271 11.0964 13.9038 10.8909 13.9492 10.4375C13.998 9.94982 14 9.31587 14 8.3252V7.6748C14 6.68413 13.998 6.05018 13.9492 5.5625C13.9038 5.10909 13.8271 4.90364 13.7422 4.75879C13.6565 4.61266 13.5114 4.44144 13.1309 4.17285C12.9274 4.02926 12.6862 3.87691 12.3867 3.69922L11.2949 3.07031L10.7227 2.74609C9.85228 2.25127 9.29142 1.93408 8.83496 1.73047C8.40855 1.54027 8.18067 1.5 8 1.5ZM7.05566 5.95898C7.69464 5.66055 8.44084 5.68228 9.06445 6.02344L9.11523 6.05176L9.125 6.05762L9.1748 6.08691L9.29395 6.16406C9.87193 6.56821 10.2268 7.22584 10.2432 7.93652V8.06348C10.2268 8.77416 9.87193 9.43179 9.29395 9.83594L9.1748 9.91309C9.1594 9.92246 9.14332 9.93161 9.125 9.94238L9.11523 9.94922L9.11426 9.94824L9.06445 9.97656C8.44084 10.3177 7.69464 10.3394 7.05566 10.041L6.92871 9.97656L6.87891 9.94824L6.86816 9.94238L6.81836 9.91309C6.21103 9.54352 5.81971 8.90779 5.75879 8.20508L5.75098 8.06348C5.75057 8.04551 5.75017 8.02703 5.75 8.00586V7.99414L5.75098 7.93652L5.75879 7.79492C5.81971 7.09221 6.21103 6.45648 6.81836 6.08691L6.86816 6.05762L6.87891 6.05078V6.05176C6.89724 6.04136 6.91301 6.03203 6.92871 6.02344L7.05566 5.95898ZM8.34473 7.33887C8.1552 7.23518 7.93067 7.22213 7.73242 7.2998L7.64941 7.33887C7.64643 7.3405 7.64189 7.3417 7.62793 7.34961L7.62891 7.35059L7.59766 7.36816C7.41322 7.4805 7.28961 7.66843 7.25781 7.87891L7.25 7.9707V8.0293L7.25781 8.12109C7.28961 8.33157 7.41322 8.5195 7.59766 8.63184L7.61816 8.64355L7.64941 8.66113L7.73242 8.7002C7.93067 8.77787 8.1552 8.76482 8.34473 8.66113L8.375 8.64355C8.38881 8.63542 8.3926 8.6336 8.39551 8.63184L8.4707 8.5791C8.63722 8.44626 8.73819 8.24536 8.74316 8.0293V7.9707C8.73819 7.75464 8.63722 7.55374 8.4707 7.4209L8.39551 7.36816C8.3926 7.3664 8.38881 7.36458 8.375 7.35645L8.34473 7.33887Z" />
      </svg>