<svg width="16" height="16" viewBox="0 0 16 16" fill="none" xmlns="http://www.w3.org/2000/svg">
    <g clip-path="url(#clip0_542_603)">
    <path d="M8.88232 1.07594C8.97855 0.673128 9.38279 0.424115 9.78564 0.520275C10.1882 0.61655 10.4371 1.02099 10.3413 1.4236L7.11864 14.9226C7.02251 15.3254 6.61806 15.5741 6.21532 15.4783C5.81252 15.3821 5.56366 14.9778 5.65966 14.575L8.88232 1.07594ZM3.48485 4.05348C3.7738 3.80621 4.20878 3.81354 4.48974 4.0818C4.78868 4.36785 4.79983 4.84197 4.51415 5.14137L1.78564 7.99781L4.51415 10.8552L4.56396 10.9138C4.79702 11.2139 4.77045 11.6477 4.48974 11.9158C4.20896 12.1838 3.77378 12.1909 3.48485 11.9441L3.42919 11.8914L0.207511 8.51637C-0.0691977 8.22656 -0.069143 7.77008 0.207511 7.48024L3.42919 4.10621L3.48485 4.05348ZM11.5083 4.0818C11.7892 3.81364 12.2233 3.80648 12.5122 4.05348L12.5679 4.10621L15.7905 7.48024C16.0669 7.77007 16.0671 8.22664 15.7905 8.51637L12.5679 11.8914L12.5122 11.9441C12.2234 12.1907 11.7891 12.1834 11.5083 11.9158C11.2087 11.6298 11.1979 11.1548 11.4839 10.8552L14.2104 7.99781L11.4839 5.14137L11.4331 5.08375C11.1997 4.78374 11.2275 4.34998 11.5083 4.0818Z" fill="currentColor"/>
    </g>
    <defs>
    <clipPath id="clip0_542_603">
    <rect width="16" height="16" fill="white"/>
    </clipPath>
    </defs>
    </svg>
    