<svg width="16" height="16" viewBox="0 0 16 16" fill="none" xmlns="http://www.w3.org/2000/svg">
  <g clip-path="url(#clip0_397_12417)">
  <path d="M8 0.25C12.2802 0.25 15.75 3.71979 15.75 8C15.75 12.2802 12.2802 15.75 8 15.75C3.71979 15.75 0.25 12.2802 0.25 8C0.25 3.71979 3.71979 0.25 8 0.25ZM4.13965 12.9131C5.20266 13.7495 6.54245 14.25 8 14.25C9.45579 14.25 10.794 13.7506 11.8564 12.916L10.0723 11.1318C9.48092 11.5215 8.77386 11.75 8.0127 11.75C7.24309 11.75 6.5279 11.5178 5.93262 11.1201L4.13965 12.9131ZM11.1328 5.91992C11.5305 6.5152 11.7627 7.23039 11.7627 8C11.7627 8.76728 11.5312 9.48002 11.1357 10.0742L12.917 11.8555C13.7511 10.7932 14.25 9.4553 14.25 8C14.25 6.54245 13.7495 5.20266 12.9131 4.13965L11.1328 5.91992ZM3.08301 4.14258C2.24837 5.205 1.75 6.54414 1.75 8C1.75 9.45355 2.24782 10.7899 3.08008 11.8516L4.87695 10.0547C4.48938 9.46439 4.2627 8.75893 4.2627 8C4.2627 7.23874 4.49012 6.53085 4.87988 5.93945L3.08301 4.14258ZM8.0127 5.75C6.77008 5.75 5.7627 6.75736 5.7627 8C5.7627 9.24265 6.77008 10.25 8.0127 10.25C9.25534 10.25 10.2627 9.24265 10.2627 8C10.2627 6.75736 9.25534 5.75001 8.0127 5.75ZM8 1.75C6.54463 1.75 5.20581 2.2479 4.14355 3.08203L5.9375 4.87598C6.53175 4.48044 7.24533 4.25 8.0127 4.25C8.77162 4.25 9.47709 4.47668 10.0674 4.86426L11.8516 3.08008C10.7899 2.24782 9.45355 1.75 8 1.75Z" fill="currentColor"/>
  </g>
  <defs>
  <clipPath id="clip0_397_12417">
  <rect width="16" height="16" fill="white"/>
  </clipPath>
  </defs>
  </svg>
  