<svg width="14" height="14" viewBox="0 0 14 14" fill="none" xmlns="http://www.w3.org/2000/svg">
<g clip-path="url(#clip0_2111_1511)">
<g clip-path="url(#clip1_2111_1511)">
<mask id="path-1-inside-1_2111_1511" fill="white">
<path d="M14 11C14 12.6569 12.6569 14 11 14L0 14C-1.65685 14 -3 12.6569 -3 11V0C-3 -1.65685 -1.65685 -3 0 -3H11C12.6569 -3 14 -1.65685 14 0L14 11Z"/>
</mask>
<path d="M11 -3V-2.5C12.3807 -2.5 13.5 -1.38071 13.5 0H14H14.5C14.5 -1.933 12.933 -3.5 11 -3.5V-3ZM14 0H13.5V2.75H14H14.5V0H14ZM14 8.25H13.5V11H14H14.5V8.25H14ZM14 11H13.5C13.5 12.3807 12.3807 13.5 11 13.5V14V14.5C12.933 14.5 14.5 12.933 14.5 11H14ZM11 14V13.5H8.25V14V14.5H11V14ZM2.75 14V13.5H0V14V14.5H2.75V14ZM0 14V13.5C-1.38071 13.5 -2.5 12.3807 -2.5 11H-3H-3.5C-3.5 12.933 -1.933 14.5 0 14.5V14ZM-3 11H-2.5V8.25H-3H-3.5V11H-3ZM-3 2.75H-2.5V0H-3H-3.5V2.75H-3ZM-3 0H-2.5C-2.5 -1.38071 -1.38071 -2.5 0 -2.5V-3V-3.5C-1.933 -3.5 -3.5 -1.933 -3.5 0H-3ZM0 -3V-2.5H2.75V-3V-3.5H0V-3ZM8.25 -3V-2.5H11V-3V-3.5H8.25V-3ZM11 -3V-2C12.1046 -2 13 -1.10457 13 0H14H15C15 -2.20914 13.2091 -4 11 -4V-3ZM14 0H13V2.75H14H15V0H14ZM14 8.25H13V11H14H15V8.25H14ZM14 11H13C13 12.1046 12.1046 13 11 13V14V15C13.2091 15 15 13.2091 15 11H14ZM11 14V13H8.25V14V15H11V14ZM2.75 14V13H0V14V15H2.75V14ZM0 14V13C-1.10457 13 -2 12.1046 -2 11H-3H-4C-4 13.2091 -2.20914 15 0 15V14ZM-3 11H-2V8.25H-3H-4V11H-3ZM-3 2.75H-2V0H-3H-4V2.75H-3ZM-3 0H-2C-2 -1.10457 -1.10457 -2 0 -2V-3V-4C-2.20914 -4 -4 -2.20914 -4 0H-3ZM0 -3V-2H2.75V-3V-4H0V-3ZM8.25 -3V-2H11V-3V-4H8.25V-3Z" fill="#4E4E4E" mask="url(#path-1-inside-1_2111_1511)"/>
</g>
<g clip-path="url(#clip2_2111_1511)">
<mask id="path-3-inside-2_2111_1511" fill="white">
<path d="M3 14C1.34315 14 0 12.6569 0 11L0 0C0 -1.65685 1.34315 -3 3 -3H14C15.6569 -3 17 -1.65685 17 0V11C17 12.6569 15.6569 14 14 14H3Z"/>
</mask>
<path d="M17 11H16.5C16.5 12.3807 15.3807 13.5 14 13.5V14V14.5C15.933 14.5 17.5 12.933 17.5 11H17ZM14 14V13.5H11.25V14V14.5H14V14ZM5.75 14V13.5H3V14V14.5H5.75V14ZM3 14V13.5C1.61929 13.5 0.5 12.3807 0.5 11H0H-0.5C-0.5 12.933 1.067 14.5 3 14.5V14ZM0 11H0.5L0.5 8.25H0H-0.5L-0.5 11H0ZM0 2.75H0.5L0.5 0H0H-0.5L-0.5 2.75H0ZM0 0H0.5C0.5 -1.38071 1.61929 -2.5 3 -2.5V-3V-3.5C1.067 -3.5 -0.5 -1.933 -0.5 0H0ZM3 -3V-2.5H5.75V-3V-3.5H3V-3ZM11.25 -3V-2.5H14V-3V-3.5H11.25V-3ZM14 -3V-2.5C15.3807 -2.5 16.5 -1.38071 16.5 0H17H17.5C17.5 -1.933 15.933 -3.5 14 -3.5V-3ZM17 0H16.5V2.75H17H17.5V0H17ZM17 8.25H16.5V11H17H17.5V8.25H17ZM17 11H16C16 12.1046 15.1046 13 14 13V14V15C16.2091 15 18 13.2091 18 11H17ZM14 14V13H11.25V14V15H14V14ZM5.75 14V13H3V14V15H5.75V14ZM3 14V13C1.89543 13 1 12.1046 1 11H0H-1C-1 13.2091 0.790861 15 3 15V14ZM0 11H1L1 8.25H0H-1L-1 11H0ZM0 2.75H1L1 0H0H-1L-1 2.75H0ZM0 0H1C1 -1.10457 1.89543 -2 3 -2V-3V-4C0.790861 -4 -1 -2.20914 -1 0H0ZM3 -3V-2H5.75V-3V-4H3V-3ZM11.25 -3V-2H14V-3V-4H11.25V-3ZM14 -3V-2C15.1046 -2 16 -1.10457 16 0H17H18C18 -2.20914 16.2091 -4 14 -4V-3ZM17 0H16V2.75H17H18V0H17ZM17 8.25H16V11H17H18V8.25H17Z" fill="#4E4E4E" mask="url(#path-3-inside-2_2111_1511)"/>
</g>
<g clip-path="url(#clip3_2111_1511)">
<mask id="path-5-inside-3_2111_1511" fill="white">
<path d="M0 3C0 1.34315 1.34315 0 3 0H14C15.6569 0 17 1.34315 17 3V14C17 15.6569 15.6569 17 14 17H3C1.34315 17 0 15.6569 0 14V3Z"/>
</mask>
<path d="M3 17V16.5C1.61929 16.5 0.5 15.3807 0.5 14H0H-0.5C-0.5 15.933 1.067 17.5 3 17.5V17ZM0 14H0.5V11.25H0H-0.5V14H0ZM0 5.75H0.5V3H0H-0.5V5.75H0ZM0 3H0.5C0.5 1.61929 1.61929 0.5 3 0.5V0V-0.5C1.067 -0.5 -0.5 1.067 -0.5 3H0ZM3 0V0.5H5.75V0V-0.5H3V0ZM11.25 0V0.5H14V0V-0.5H11.25V0ZM14 0V0.5C15.3807 0.5 16.5 1.61929 16.5 3H17H17.5C17.5 1.067 15.933 -0.5 14 -0.5V0ZM17 3H16.5V5.75H17H17.5V3H17ZM17 11.25H16.5V14H17H17.5V11.25H17ZM17 14H16.5C16.5 15.3807 15.3807 16.5 14 16.5V17V17.5C15.933 17.5 17.5 15.933 17.5 14H17ZM14 17V16.5H11.25V17V17.5H14V17ZM5.75 17V16.5H3V17V17.5H5.75V17ZM3 17V16C1.89543 16 1 15.1046 1 14H0H-1C-1 16.2091 0.790861 18 3 18V17ZM0 14H1V11.25H0H-1V14H0ZM0 5.75H1V3H0H-1V5.75H0ZM0 3H1C1 1.89543 1.89543 1 3 1V0V-1C0.790861 -1 -1 0.790861 -1 3H0ZM3 0V1H5.75V0V-1H3V0ZM11.25 0V1H14V0V-1H11.25V0ZM14 0V1C15.1046 1 16 1.89543 16 3H17H18C18 0.790861 16.2091 -1 14 -1V0ZM17 3H16V5.75H17H18V3H17ZM17 11.25H16V14H17H18V11.25H17ZM17 14H16C16 15.1046 15.1046 16 14 16V17V18C16.2091 18 18 16.2091 18 14H17ZM14 17V16H11.25V17V18H14V17ZM5.75 17V16H3V17V18H5.75V17Z" fill="#4E4E4E" mask="url(#path-5-inside-3_2111_1511)"/>
</g>
<g clip-path="url(#clip4_2111_1511)">
<mask id="path-7-inside-4_2111_1511" fill="white">
<path d="M11 0C12.6569 0 14 1.34315 14 3V14C14 15.6569 12.6569 17 11 17H0C-1.65685 17 -3 15.6569 -3 14V3C-3 1.34315 -1.65685 0 0 0L11 0Z"/>
</mask>
<path d="M-3 3H-2.5C-2.5 1.61929 -1.38071 0.5 0 0.5V0V-0.5C-1.933 -0.5 -3.5 1.067 -3.5 3H-3ZM0 0V0.5H2.75V0V-0.5H0V0ZM8.25 0V0.5L11 0.5V0V-0.5L8.25 -0.5V0ZM11 0V0.5C12.3807 0.5 13.5 1.61929 13.5 3H14H14.5C14.5 1.067 12.933 -0.5 11 -0.5V0ZM14 3H13.5V5.75H14H14.5V3H14ZM14 11.25H13.5V14H14H14.5V11.25H14ZM14 14H13.5C13.5 15.3807 12.3807 16.5 11 16.5V17V17.5C12.933 17.5 14.5 15.933 14.5 14H14ZM11 17V16.5H8.25V17V17.5H11V17ZM2.75 17V16.5H0V17V17.5H2.75V17ZM0 17V16.5C-1.38071 16.5 -2.5 15.3807 -2.5 14H-3H-3.5C-3.5 15.933 -1.933 17.5 0 17.5V17ZM-3 14H-2.5V11.25H-3H-3.5V14H-3ZM-3 5.75H-2.5V3H-3H-3.5V5.75H-3ZM-3 3H-2C-2 1.89543 -1.10457 1 0 1V0V-1C-2.20914 -1 -4 0.790861 -4 3H-3ZM0 0V1H2.75V0V-1H0V0ZM8.25 0V1L11 1V0V-1H8.25V0ZM11 0V1C12.1046 1 13 1.89543 13 3H14H15C15 0.790861 13.2091 -1 11 -1V0ZM14 3H13V5.75H14H15V3H14ZM14 11.25H13V14H14H15V11.25H14ZM14 14H13C13 15.1046 12.1046 16 11 16V17V18C13.2091 18 15 16.2091 15 14H14ZM11 17V16H8.25V17V18H11V17ZM2.75 17V16H0V17V18H2.75V17ZM0 17V16C-1.10457 16 -2 15.1046 -2 14H-3H-4C-4 16.2091 -2.20914 18 0 18V17ZM-3 14H-2V11.25H-3H-4V14H-3ZM-3 5.75H-2V3H-3H-4V5.75H-3Z" fill="white" mask="url(#path-7-inside-4_2111_1511)"/>
</g>
</g>
<defs>
<clipPath id="clip0_2111_1511">
<rect width="14" height="14" fill="white"/>
</clipPath>
<clipPath id="clip1_2111_1511">
<rect width="6" height="6" fill="white" transform="matrix(-1 0 0 -1 14 14)"/>
</clipPath>
<clipPath id="clip2_2111_1511">
<rect width="6" height="6" fill="white" transform="matrix(0 -1 1 0 0 14)"/>
</clipPath>
<clipPath id="clip3_2111_1511">
<rect width="6" height="6" fill="white"/>
</clipPath>
<clipPath id="clip4_2111_1511">
<rect width="6" height="6" fill="white" transform="matrix(0 1 -1 0 14 0)"/>
</clipPath>
</defs>
</svg>
