<svg width="16" height="16" viewBox="0 0 16 16" fill="none" xmlns="http://www.w3.org/2000/svg">
    <path d="M3.0635 2.17763C3.35319 1.93183 3.78751 1.94009 4.0674 2.20888C4.34725 2.47807 4.3732 2.91261 4.13869 3.21181L4.08889 3.26943L3.2549 4.13564L10.5039 4.17861V4.17958C13.1513 4.1823 15.2489 6.40789 15.249 9.08876C15.2489 11.7713 13.1486 13.9989 10.499 13.9989H4.09865L4.02248 13.995C3.64441 13.9566 3.34881 13.6371 3.34865 13.2489C3.34883 12.8608 3.64442 12.5412 4.02248 12.5028L4.09865 12.4989H10.499C12.2652 12.4989 13.7489 10.9989 13.749 9.08876C13.7489 7.17858 12.2652 5.67861 10.499 5.67861H10.4951L3.26662 5.63564L4.08889 6.49013C4.37569 6.78874 4.3659 7.26369 4.0674 7.55068C3.76884 7.83737 3.29384 7.82851 3.00686 7.53017L0.959006 5.39931C0.680325 5.10909 0.680338 4.65048 0.959006 4.36025L3.00686 2.23037L3.0635 2.17763Z" fill="currentColor"/>
    </svg>
    