<?xml version="1.0" encoding="utf-8"?>
<!-- Generator: Adobe Illustrator 27.0.1, SVG Export Plug-In . SVG Version: 6.00 Build 0)  -->
<svg version="1.1" id="Layer_1" xmlns="http://www.w3.org/2000/svg" xmlns:xlink="http://www.w3.org/1999/xlink" x="0px" y="0px" width="80" height="80"
	 viewBox="0 0 1200 1200" enable-background="new 0 0 1200 1200" xml:space="preserve">
<g>
	<g>
		<path fill="#FFFFFF" d="M1200,271.547c-23,0-41.645-18.645-41.645-41.645S1177,188.257,1200,188.257l0,0v-64.75l0,0
			c-23,0-41.645-18.645-41.645-41.645S1177,40.219,1200,40.219l0,0V0h-40.22c0,22.998-18.645,41.643-41.645,41.643
			c-23,0-41.645-18.645-41.645-41.643h-64.75c0,22.998-18.645,41.643-41.645,41.643S928.452,22.998,928.452,0h-64.75
			c0,22.998-18.645,41.643-41.644,41.643S780.414,22.998,780.414,0h-64.75c-0.001,22.998-18.646,41.643-41.645,41.643
			c-22.999,0-41.644-18.645-41.645-41.643h-64.749c0,22.998-18.645,41.643-41.645,41.643c-23,0-41.645-18.645-41.645-41.643h-64.75
			c0,22.998-18.645,41.643-41.645,41.643S336.298,22.998,336.298,0h-64.75c0,22.998-18.645,41.643-41.645,41.643
			c-22.998,0-41.643-18.645-41.644-41.643h-64.75c-0.001,22.998-18.646,41.643-41.645,41.643S40.222,22.998,40.221,0H0v40.219
			c0.001,0,0.001,0,0.001,0c23,0,41.645,18.645,41.645,41.645s-18.645,41.645-41.645,41.645c0,0,0,0-0.001,0v64.75
			c0.001,0,0.001,0,0.001,0c23,0,41.645,18.645,41.645,41.645s-18.645,41.645-41.645,41.645c0,0,0,0-0.001,0v64.75
			c0.001,0,0.001,0,0.001,0c23,0,41.645,18.645,41.645,41.645s-18.645,41.645-41.645,41.645c0,0,0,0-0.001,0v64.75
			c0.001,0,0.001,0,0.001,0c23,0,41.645,18.645,41.645,41.643c0,23-18.645,41.645-41.645,41.645c0,0,0,0-0.001,0v64.75
			c0.001,0,0.001,0,0.001,0c23,0,41.645,18.645,41.645,41.645s-18.645,41.645-41.645,41.645c0,0,0,0-0.001,0v64.75
			c0.001,0,0.001,0,0.001,0c23,0,41.645,18.645,41.645,41.645s-18.645,41.645-41.645,41.645c0,0,0,0-0.001,0v64.75
			c0.001,0,0.001,0,0.001,0c23,0,41.645,18.645,41.645,41.645s-18.645,41.645-41.645,41.645c0,0,0,0-0.001,0v64.75
			c0.001,0,0.001,0,0.001,0c23,0,41.645,18.645,41.645,41.645c0,22.998-18.645,41.645-41.645,41.645c0,0,0,0-0.001,0V1200h40.221
			c0-0.001,0-0.001,0-0.001c0-23,18.645-41.645,41.645-41.645s41.645,18.645,41.645,41.645c0,0,0,0,0,0.001h64.75
			c0-0.001,0-0.001,0-0.001c0-23,18.645-41.645,41.644-41.645c23,0,41.645,18.645,41.645,41.645c0,0,0,0,0,0.001h64.75
			c0-0.001,0-0.001,0-0.001c0-23,18.645-41.645,41.645-41.645s41.645,18.645,41.645,41.645c0,0,0,0,0,0.001h64.75
			c0-0.001,0-0.001,0-0.001c0-23,18.645-41.645,41.645-41.645c23,0,41.645,18.645,41.645,41.645c0,0,0,0,0,0.001h64.749
			c0-0.001,0-0.001,0-0.001c0-23,18.646-41.645,41.645-41.645c23,0,41.645,18.645,41.645,41.645c0,0,0,0,0,0.001h64.75
			c0-0.001,0-0.001,0-0.001c0-23,18.645-41.645,41.645-41.645c22.999,0,41.644,18.645,41.644,41.645c0,0,0,0,0,0.001h64.75
			c0-0.001,0-0.001,0-0.001c0-23,18.645-41.645,41.645-41.645s41.645,18.645,41.645,41.645c0,0,0,0,0,0.001h64.75
			c0-0.001,0-0.001,0-0.001c0-23,18.645-41.645,41.645-41.645c23,0,41.645,18.645,41.645,41.645c0,0,0,0,0,0.001H1200v-40.222l0,0
			c-23,0-41.645-18.646-41.645-41.645c0-23,18.645-41.645,41.645-41.645l0,0v-64.75l0,0c-23,0-41.645-18.645-41.645-41.645
			S1177,928.45,1200,928.45l0,0v-64.75l0,0c-23,0-41.645-18.645-41.645-41.645S1177,780.411,1200,780.411l0,0v-64.75l0,0
			c-23,0-41.645-18.645-41.645-41.645S1177,632.373,1200,632.373l0,0v-64.75l0,0c-23,0-41.645-18.645-41.645-41.645
			c0-22.998,18.645-41.643,41.645-41.643l0,0v-64.75l0,0c-23,0-41.645-18.645-41.645-41.645S1177,336.296,1200,336.296l0,0V271.547
			L1200,271.547z"/>
	</g>
	<g>
		<defs>
			<rect id="SVGID_1_" x="81.956" y="81.955" width="1036.09" height="1036.09"/>
		</defs>
		<clipPath id="SVGID_00000076592278453146880290000017819136221974491042_">
			<use xlink:href="#SVGID_1_"  overflow="visible"/>
		</clipPath>
		<g clip-path="url(#SVGID_00000076592278453146880290000017819136221974491042_)">
			<g>
				<path fill="#FFE2A0" d="M1118.045,81.955H81.956v849.45c176.76-126.812,248.885-189.33,312.209-404.078
					c64.86-219.957,291.193-192.271,331.906-165.815c0,0,121.17,54.568,83.833,203.102c-36.977,147.1-41.376,167.188-99.739,249.859
					c-62.213,88.125-65.353,146.873-65.353,146.873s-29.713-48.616-13.328-106.501c-8.055,26.26-40.452,133.922-70.636,263.199
					h557.197V81.955z"/>
				<path fill="#FFFFFF" d="M633.379,848.713c0,0-0.665,2.122-1.896,6.132c-16.385,57.885,13.328,106.501,13.328,106.501
					s3.14-58.748,65.353-146.873c58.363-82.671,62.762-102.759,99.739-249.859c37.337-148.534-83.833-203.102-83.833-203.102
					c-40.714-26.456-267.046-54.142-331.906,165.815C330.841,742.076,258.715,804.593,81.956,931.405v186.639h478.892
					c30.183-129.278,62.58-236.939,70.636-263.199C632.059,852.812,632.686,850.768,633.379,848.713z"/>
				<path fill="#FFFFFF" d="M631.483,854.845c1.23-4.011,1.896-6.132,1.896-6.132C632.686,850.768,632.059,852.812,631.483,854.845z
					"/>
			</g>
			<path fill="#FFBB11" d="M815.117,537.943c0,0,125.878,73.14,244.874,79.807c27.606-1.398-1.536,98.017-272.812,115.88
				c-136.884,3.949-207.35-55.941-143.121-84.5C708.287,620.572,784.376,593.706,815.117,537.943z"/>
			
				<ellipse transform="matrix(0.9714 -0.2374 0.2374 0.9714 -113.9812 164.9534)" fill="#1C304E" cx="627.872" cy="555.71" rx="23.245" ry="49.395"/>
			<g>
				<path fill="#3A53DB" d="M353.302,527.707c0,0,10.093,39.587,26.105,47.535s100.604-93.827,196.279-130.356
					S814.234,262.93,814.234,262.93s-52.149-19.568-130.436,60.713C619.703,389.371,372.252,394.783,353.302,527.707z"/>
				<path fill="#2E2647" d="M780.188,405.189c0,0,88.574-119.685,39.224-140.625c-30.913-13.117-78.949,30.273-102.445,69.991
					c-17.992,30.413-28.107,40.114-28.107,40.114S748.182,364.6,780.188,405.189z"/>
				<g>
					<path fill="#4F6AFF" d="M654.707,298.206c-39.489-11.631-64.043-46.387-54.841-77.63c2.171-7.371,6.076-13.852,11.219-19.356
						c-58.076-2.636-76.85,44.938-106.531,102.211c-47.445-8.729-108.873-8.601-159.358,5.994
						c-62.907,18.186-102.949,81.867-85.93,145.099c19.331,71.823,94.036,73.181,94.036,73.181s58.546-110.765,172.099-127.995
						c109.769-16.656,194.05-105.692,199.545-111.607C707.603,301.383,681.182,306.004,654.707,298.206z"/>
					<path fill="#FFFFFF" d="M725.247,287.779c0,0-15.415-66.508-91.742-83.552c-8.131-1.815-15.495-2.691-22.42-3.006
						c-5.144,5.503-9.048,11.984-11.219,19.356c-9.202,31.243,15.352,65.999,54.841,77.63c26.475,7.798,52.896,3.176,70.24-10.102
						C725.136,287.9,725.247,287.779,725.247,287.779z"/>
				</g>
				<path fill="#215EA2" d="M428.841,376.31c7.701-4.762,15.112-9.711,22.314-14.897c7.156-5.242,14.084-10.718,20.577-16.649
					l4.841-4.476l4.572-4.736c1.602-1.515,3.005-3.197,4.433-4.864l2.156-2.493c0.761-0.801,1.464-1.646,2.103-2.537
					c5.6-6.831,10.152-14.359,14.716-22.227c-2.156,8.77-5.727,17.384-10.817,25.032c-5.055,7.651-11.052,14.724-17.866,20.853
					c-6.846,6.087-14.215,11.559-22.11,16.111C445.885,369.975,437.594,373.87,428.841,376.31z"/>
			</g>
		</g>
	</g>
	<path fill="#666666" d="M52.184,891.034c-0.501-0.105-24.522-5.99-52.184-12.771V867.48c0.914,0.382,1.899,0.733,2.755,1.142
		c0.618-0.772,1.258-1.576,2.081-2.609c7.15,1.809,49.031,11.415,54.142,12.476c46.582,9.549,93.453,15.238,140.131,10.994
		c4.039-0.31,8.133-0.836,12.196-1.396c2.32,2.305,7.441,4.002,11.527,5.726c0.451,0.191,3.519-1.823,5.076-2.657
		c-1.469-1.701-2.84-3.3-4.225-4.91c6.422-1.091,12.858-2.407,19.27-3.93c0.809-0.191,1.615-0.403,2.422-0.601
		c6.287-1.551,12.568-3.249,18.831-5.252c11.67-3.664,23.244-8.196,34.818-13.597c1.481-0.649,3.049-1.39,4.538-2.131
		c0.809,0.83,1.396,2.579,1.138,3.619c-0.461,1.856-1.794,3.799-3.63,5.332c-4.046,3.383-2.357,5.375,0.592,7.043
		c-5.122,2.331-10.271,4.406-15.387,6.403c-2.422,0.936-4.842,1.877-7.263,2.74c-2.187,0.789-4.374,1.474-6.561,2.208
		c-5.949,1.966-11.897,3.794-17.846,5.386c-2.368-1.922-5.071-3.715-7.686-5.542c-1.253,0.896-2.504,1.791-5.173,3.698
		c2.095,1.34,5.781,3.698,5.781,3.698c-5.559,1.345-11.12,2.496-16.682,3.529c-2.984-0.891-8.218-0.972-12.28-1.222
		c-2.144-0.131-4.487,0.597-7.025,0.975c0.847,0.896,1.52,1.811,2.519,2.639c-1.827,0.565-3.984,0.965-6.173,1.166
		c-13.599,1.64-27.099,2.314-40.699,2.314c-34.238,0-68.377-4.436-102.325-11.09c-0.3-0.06-0.603-0.125-0.905-0.185
		c0.816-0.493,1.419-0.981,1.442-1.362c0.153-2.371-2.421-4.795-4.951-9.026c-5.296,3.398-9.859,5.359-9.429,6.236
		C51.308,889.886,51.707,890.468,52.184,891.034z M97.809,809.674c7.174,1.061,14.351,2.029,22.057,2.861
		c6.741,0.727,13.489,1.276,20.238,1.716c1.732,0.114,3.465,0.219,5.197,0.311c7.004,0.376,14.01,0.645,21.018,0.661
		c4.728,0,9.355,0,14.08-0.29c4.659-0.162,9.316-0.436,13.973-0.796c3.078-0.23,6.152-0.565,9.228-0.882
		c1.359-0.141,2.721-0.257,4.082-0.419c3.943-0.457,7.886-1.017,11.826-1.625c0.363-0.056,0.727-0.107,1.09-0.164
		c4.272-0.673,8.567-1.452,12.833-2.31c7.168,2.4,7.952,7.204,0.945,11.876c-1.535,1.022-2.048,1.812-2.058,2.448
		c-7.235,1.384-14.469,2.434-21.701,3.32c-1.54,0.188-3.08,0.362-4.62,0.527c-7.119,0.771-14.239,1.39-21.355,1.719
		c-4.822,0.192-17.455,0.386-17.455,0.386c-6.306,0-12.61-0.192-18.915-0.481c-1.682-0.078-3.363-0.189-5.043-0.283
		c-5.007-0.289-10.012-0.643-15.016-1.093c-1.353-0.119-2.703-0.231-4.057-0.362c-13.243-1.295-26.471-3.081-39.666-5.284
		c-0.235-0.292-0.552-0.585-0.772-0.879c-3.77-5.024-7.393-10.082-11.03-15.14c7.008,1.301,14.022,2.471,21.039,3.557
		C95.088,809.261,96.448,809.472,97.809,809.674z M174.614,817.352c1.318,2.412,2.045,5.031,4.179,7.155
		c1.231,1.222,4.642,1.805,7.265,2.328c0.851,0.17,2.315-0.768,3.583-1.231c-4.103-3.285-7.366-6.032-10.966-8.617
		C178.227,816.664,176.012,817.209,174.614,817.352z M293.374,789.74c1.381,1.653,2.835,3.287,4.329,4.904
		c0.275,0.298,2.595,0.304,3.372-0.035c0.815-0.355,1.523-1.407,1.225-1.952c-1.011-1.836-2.13-3.655-3.332-5.454
		C297.104,788.074,295.241,788.918,293.374,789.74z M303.75,1012.062c-42.821,20.928-86.123,29.317-129.426,30.09
		c-7.041,0.194-14.08,0.096-21.121-0.194c-7.811-0.192-15.719-0.675-23.532-1.349c-10.031-0.963-20.06-2.122-30.091-3.568
		c-33.364-4.861-66.613-12.539-99.58-20.834v14.034c15.404,3.856,30.867,7.573,46.393,10.924c1.896,0.409,3.794,0.812,5.692,1.21
		c8.509,1.784,17.039,3.489,25.578,5.003c0,0,6.836-3.816,12.259-6.845c3.32,4.235,5.883,6.065,5.919,7.892
		c0.013,0.588,0.128,1.268,0.201,1.957c6.221,0.924,12.447,1.755,18.68,2.477c10.223,1.157,20.542,2.12,30.765,2.603
		c7.234,0.385,14.466,0.58,21.7,0.58h2.411c7.135-0.098,14.369-0.29,21.507-0.772c39.54-2.507,79.178-11.669,118.624-30.958
		c3.375-1.639,4.822-5.689,3.086-9.162C311.174,1011.772,307.124,1010.421,303.75,1012.062z M36.701,736.333
		c-4.037-0.878-29.616-7.096-36.701-8.832v-14.206c17.003,4.214,35.087,8.665,37.568,9.247c11.36,2.552,22.753,4.91,34.164,7.042
		c0.217,0.041,0.434,0.078,0.65,0.119c11.405,2.122,22.827,3.972,34.259,5.49c1.53,0.811,3.205,1.546,5.197,2.117
		c9.997,2.854,8.218,6.023,7.032,10.026c-0.316,1.067-2.869,2.218-4.979,2.667c-0.141-0.016-1.667-0.179-1.667-0.179
		c-1.105-0.542-2.519-1.691-3.379-2.495c-4.301-4.035-4.095-4.003-9.02-0.44c-0.546,0.395-1.291,0.697-2.001,1.013
		c-6.681-0.974-13.36-2.078-20.028-3.26c-0.902-0.161-22-4.211-22-4.211c-1.144-2.165-3.674-2.553-6.261-1.295
		C45.254,738.225,40.975,737.298,36.701,736.333z M91.751,743.983c2.927-2.128,5.856-4.257,10.169-7.397
		c-4.121-0.878-7.493-1.991-8.007-1.637c-2.411,1.667-4.583,3.635-5.67,5.715C87.823,741.473,90.491,742.86,91.751,743.983z
		 M274.054,736.297c5.965-2.027,11.931-4.266,18.026-6.779c2.335-2.821-0.657-4.42-4.171-6.796
		c-0.421-0.284-0.854-0.567-1.287-0.851c-0.768-0.098-1.518-0.176-2.3-0.295c-4.621,0.98-14.255,2.135-14.165,3.151
		c0.591,6.699-10.495,10.609-14.065,16.155c-0.164,0.254-0.192,0.595-0.15,0.956C261.851,740.224,267.76,738.416,274.054,736.297z
		 M300.645,724.532c-0.678-0.267-1.204-0.541-2.002-0.802c-4.277-1.395-7.275-4.837-9.417-7.855
		c-2.446,1.032-4.903,1.964-7.351,2.92c1.576,1.034,3.187,2.054,4.746,3.078c5.335,0.67,10.239,0.944,12.958,2.245
		C299.856,724.248,300.256,724.389,300.645,724.532z M300.645,724.532c0.44,0.158,0.867,0.347,1.391,0.518
		C301.633,724.869,301.1,724.711,300.645,724.532z M218.062,749.66c4.614-0.669,9.228-1.458,13.84-2.338
		c0.377-0.072,0.754-0.141,1.132-0.216c4.646-0.903,9.307-1.909,13.952-3.03c-0.781-2.51-2.541-4.863-6.871-6.776
		c2.598-2.349,1.89-4.113,0.198-5.709c-4.657,1.055-9.319,1.957-13.982,2.782c-0.319,0.056-0.638,0.128-0.957,0.182
		c-4.839,0.842-9.706,1.552-14.55,2.161c1.918,3.957,3.868,7.911,5.984,11.833C216.994,748.891,217.483,749.278,218.062,749.66z
		 M255.326,727.807c-0.419,0.12-0.87,0.263-1.29,0.379c0.298,0.209,0.614,0.413,0.898,0.627
		C255.073,728.476,255.182,728.143,255.326,727.807z M159.972,753.232c2.405,0.045,11.65,0.077,11.65,0.077
		c4.529-0.059,9.06-0.261,13.59-0.479c-7.231-3.154-14.977-5.955-20.133-10.398c-3.758-3.24-4.619-0.027-5.527,1.573
		c-0.567,1.002-1.52,2.335-0.881,3.108C160.79,749.672,160.879,751.635,159.972,753.232z M39.69,798.731
		c-0.518-0.116-1.971-0.467-4.127-0.996c0.943,2.182,4.704,11.041,5.546,15.303c0.131,0.03,0.307,0.071,0.416,0.095
		c1.059-1.277,1.77-2.14,2.434-2.944c2.876,1.767,5.752,3.534,8.627,5.299c7.314,1.533,14.637,2.986,21.976,4.316
		c-3.82-5.371-7.603-10.748-11.315-16.146C55.388,802.105,47.534,800.477,39.69,798.731z M274.044,948.892
		c-3.843,1.399-7.648,2.537-11.463,3.706c0.742,0.343,1.48,0.699,2.24,1.002c-3.426,0.573-6.853,1.145-12.514,1.937
		c-14.317,3.912-28.681,6.659-43.053,8.414c-0.599,0.074-1.197,0.15-1.794,0.219c-18.834,2.193-37.701,2.734-56.572,1.96
		c-0.925-0.038-1.848-0.074-2.773-0.116c-4.498-0.215-8.996-0.478-13.493-0.83c-0.43,0.768-2.062,1.812-2.929,2.679
		c-2.45-1.044-6.552-1.924-6.869-3.527c-7.871-0.778-15.738-1.682-23.602-2.81c-6.076-0.87-12.152-1.833-18.229-2.894
		c-6.654-1.061-13.211-2.314-19.867-3.665c-8.294-1.64-16.588-3.375-24.883-5.207c-0.203-0.047-0.403-0.099-0.606-0.146
		c0.672,1.503,3.357,7.89,3.892,14.795c1.863,0.413,3.721,0.861,5.587,1.264c8.584,1.832,17.167,3.568,25.848,5.112
		c6.75,1.253,13.597,2.41,20.35,3.471c6.267,0.965,12.541,1.886,18.806,2.603c18.337,2.099,36.648,3.471,55.068,3.471
		c2.3,0,4.602-0.074,6.901-0.114c-1.399-3.465-2.63-6.974-3.053-10.527c-0.11-0.929,4.996-2.666,8.005-3.165
		c1.709-0.284,5.838,1.198,5.804,1.866c-0.204,3.855-0.747,7.706-1.377,11.556c14.231-0.603,28.486-2.068,42.748-4.495
		c0.843-0.143,1.688-0.279,2.532-0.431c6.604-1.178,13.208-2.583,19.813-4.22c1.047-0.26,2.096-0.552,3.145-0.825
		c6.741-1.746,13.481-3.673,20.217-5.943c5.304-1.736,10.706-3.664,16.106-5.883c7.233-2.797,14.467-5.979,21.699-9.547
		c3.375-1.639,4.822-5.691,3.086-9.066c-1.64-3.375-5.69-4.822-9.065-3.183C293.911,941.178,283.979,945.325,274.044,948.892z"/>
</g>
</svg>
